# Blender v2.91.0 OBJ File: 'faithplate_new.blend'
# www.blender.org
mtllib case.mtl
o Piston_sleeve
v -0.007239 0.004154 0.065500
v -0.015801 0.005112 0.065500
v -0.015888 -0.000279 0.065500
v -0.014287 0.009695 0.065500
v -0.005577 0.007376 0.065500
v -0.011437 0.013576 0.065500
v -0.006189 0.017269 0.065500
v -0.002071 0.009530 0.065500
v 0.001265 0.018409 0.065500
v 0.002629 0.009499 0.065500
v 0.006525 0.016984 0.065500
v 0.011175 0.013938 0.065500
v 0.006788 0.005760 0.065500
v 0.015009 0.008210 0.065500
v 0.016086 0.001889 0.065500
v 0.007379 0.000950 0.065500
v 0.012962 -0.007713 0.065500
v 0.005513 -0.002864 0.065500
v 0.003597 -0.013504 0.065500
v 0.001901 -0.004910 0.065500
v -0.001635 -0.004973 0.065500
v -0.003828 -0.013282 0.065500
v -0.008873 -0.011073 0.065500
v -0.005027 -0.003222 0.065500
v -0.013275 -0.006801 0.065500
v -0.007246 0.000320 0.065500
v -0.015813 -0.034143 -0.023716
v 0.015873 -0.034143 -0.023716
v 0.015868 0.004454 -0.010786
v -0.015788 -0.000745 -0.023716
v -0.013738 -0.006016 -0.023716
v -0.010145 -0.010140 -0.023716
v -0.003611 -0.013430 -0.023716
v 0.003179 -0.013433 -0.023716
v 0.008278 -0.011456 -0.023716
v 0.012419 -0.007886 -0.023716
v 0.015123 -0.003137 -0.023716
v 0.015873 0.000254 -0.023716
v 0.015869 0.004455 -0.023716
v -0.015743 -0.014686 -0.018055
v -0.006934 -0.025279 -0.010888
v 0.007667 -0.025775 -0.010935
v -0.015610 -0.033986 -0.018591
v 0.015529 -0.033760 -0.017911
v -0.010318 -0.028685 -0.011944
v 0.012270 -0.030496 -0.013165
v -0.013333 -0.031643 -0.014335
v 0.007690 -0.021480 -0.010790
v 0.008235 -0.018420 -0.009997
v 0.009593 -0.014450 -0.008063
v 0.001308 -0.019845 -0.009972
v 0.000389 -0.013745 -0.001006
v 0.008657 -0.011967 -0.004144
v 0.012282 -0.008818 -0.003885
v 0.005467 -0.015184 -0.006991
v 0.010437 -0.009914 -0.001050
v 0.014139 -0.005506 -0.002362
v 0.005714 -0.012708 -0.001052
v 0.002864 -0.014037 -0.003683
v -0.004090 -0.013364 -0.002484
v -0.009635 -0.013925 -0.007599
v -0.008875 -0.011981 -0.004438
v -0.008909 -0.011026 -0.001571
v -0.011957 -0.008503 -0.002120
v -0.013362 -0.007655 -0.004033
v -0.015710 -0.000826 -0.001387
v -0.015153 -0.003337 -0.002306
v -0.005184 -0.014683 -0.006175
v -0.006506 -0.018667 -0.009756
v -0.006740 -0.021528 -0.010722
v -0.000948 -0.016155 -0.007109
v -0.014105 -0.008712 -0.007487
v -0.015059 -0.007742 -0.009175
v -0.015760 -0.005224 -0.010375
v -0.014635 -0.015561 -0.014532
v -0.013514 -0.021905 -0.014510
v -0.010240 -0.021852 -0.011828
v -0.015453 -0.018948 -0.017948
v -0.010110 -0.017431 -0.010465
v -0.012494 -0.013079 -0.009483
v -0.012225 -0.018387 -0.012318
v 0.015803 -0.000593 -0.002432
v 0.015816 -0.006811 -0.012152
v 0.015549 -0.001566 -0.001062
v 0.011482 -0.021116 -0.012501
v 0.015805 -0.015986 -0.018717
v 0.012362 -0.011809 -0.007991
v 0.010964 -0.016538 -0.010461
v 0.014513 -0.006638 -0.005465
v 0.014707 -0.009849 -0.010172
v 0.013120 -0.016365 -0.012425
v 0.014856 -0.015182 -0.014615
v 0.014135 -0.020913 -0.015196
v 0.015398 -0.021058 -0.017896
v -0.007412 0.001494 -0.062222
v -0.013364 -0.000162 -0.062235
v -0.006335 -0.001650 -0.062222
v -0.004583 -0.010471 -0.062235
v -0.003724 -0.004165 -0.062222
v -0.000129 -0.005161 -0.062222
v 0.007087 -0.008977 -0.062226
v 0.004068 -0.004034 -0.062222
v 0.006775 -0.000884 -0.062222
v 0.013160 -0.000319 -0.062228
v 0.007498 0.003121 -0.062222
v 0.010915 0.010010 -0.062226
v 0.005691 0.007291 -0.062222
v 0.000728 0.015911 -0.062236
v 0.002113 0.009504 -0.062222
v -0.002284 0.009525 -0.062222
v -0.010026 0.011128 -0.062226
v -0.006673 0.006005 -0.062222
v 0.015567 0.006168 -0.059273
v 0.013638 0.010919 -0.059253
v 0.008150 0.016308 -0.059267
v 0.002316 0.018204 -0.059248
v -0.003230 0.018129 -0.059260
v -0.010035 0.015000 -0.059256
v -0.015037 0.008310 -0.059257
v -0.016054 0.001325 -0.059281
v -0.014241 -0.005117 -0.059261
v -0.009741 -0.010609 -0.059224
v -0.001570 -0.013828 -0.059277
v 0.006565 -0.012393 -0.059247
v 0.011600 -0.008803 -0.059261
v 0.014987 -0.003615 -0.059246
v 0.016029 0.002038 -0.059278
vn 0.0000 0.0000 1.0000
vn 0.0000 -0.9995 0.0306
vn 0.0058 -0.9978 0.0661
vn 0.0000 0.0000 -1.0000
vn -0.9992 -0.0080 0.0398
vn -1.0000 0.0008 0.0099
vn -1.0000 -0.0028 0.0012
vn -1.0000 0.0042 0.0035
vn -0.0067 -0.2900 0.9570
vn 0.0017 -0.0444 0.9990
vn -0.0078 -0.6240 0.7814
vn -0.0042 -0.8750 0.4841
vn 0.0570 -0.2599 0.9640
vn 0.0048 -0.0339 0.9994
vn 0.0057 -0.4295 0.9030
vn 0.0071 -0.8540 0.5202
vn -0.0923 -0.9955 0.0230
vn 0.3229 -0.7863 0.5268
vn 0.1288 -0.9012 0.4139
vn 0.4904 -0.8292 0.2680
vn 0.1862 -0.9433 0.2748
vn -0.4043 -0.8168 0.4116
vn -0.3083 -0.7753 0.5512
vn -0.7953 -0.4787 0.3719
vn -0.5649 -0.6352 0.5267
vn -0.1766 -0.5017 0.8468
vn -0.2256 -0.8943 0.3864
vn -0.0753 -0.6396 0.7650
vn 0.2840 -0.7778 0.5607
vn 0.0734 -0.5830 0.8091
vn 0.2947 -0.6875 0.6637
vn 0.0984 -0.4629 0.8809
vn 0.3419 -0.9343 0.1014
vn 0.6451 -0.7532 0.1285
vn 0.7741 -0.5652 0.2852
vn -0.2529 -0.9193 0.3017
vn -0.0218 -0.3181 0.9478
vn -0.3731 -0.8816 0.2892
vn -0.6445 -0.7276 0.2348
vn -0.6746 -0.7164 0.1779
vn -0.7492 -0.1300 0.6495
vn -0.9564 -0.0579 0.2864
vn -0.9124 -0.1598 0.3769
vn -0.2785 -0.2866 0.9167
vn -0.3417 -0.5666 0.7498
vn -0.5787 -0.4677 0.6681
vn -0.9698 -0.2169 0.1115
vn -0.9499 -0.2689 0.1594
vn -0.8731 -0.4157 0.2546
vn -0.8226 -0.4696 0.3207
vn -0.9658 -0.1801 0.1864
vn -0.9474 -0.2027 0.2476
vn -0.8688 -0.4315 0.2431
vn -0.8332 -0.4525 0.3177
vn -0.5472 -0.6352 0.5451
vn -0.4754 -0.4331 0.7658
vn -0.2663 -0.2769 0.9233
vn -0.7599 -0.3949 0.5163
vn -0.8133 -0.3057 0.4951
vn -0.6120 -0.2443 0.7522
vn -0.5832 -0.2237 0.7809
vn -0.6529 -0.0255 0.7570
vn -0.8752 -0.0115 0.4835
vn -0.8799 -0.0078 0.4752
vn -0.6337 0.0021 0.7736
vn -0.6175 -0.0063 0.7865
vn -0.3003 -0.0128 0.9537
vn -0.2714 -0.0287 0.9620
vn 0.0106 -0.8206 0.5714
vn 0.0160 -0.4141 0.9101
vn 1.0000 -0.0029 0.0032
vn 1.0000 -0.0033 0.0029
vn 0.9999 0.0000 0.0136
vn 0.9981 -0.0128 0.0600
vn 0.5293 -0.6538 0.5407
vn 0.8819 -0.3986 0.2517
vn 0.5994 -0.6414 0.4789
vn 0.6823 -0.5845 0.4391
vn 0.8323 -0.4809 0.2757
vn 0.4714 -0.5138 0.7168
vn 0.4745 -0.5114 0.7164
vn 0.3532 -0.2931 0.8884
vn 0.4143 -0.3309 0.8478
vn 0.7749 -0.5069 0.3777
vn 0.6040 -0.5020 0.6191
vn 0.9751 -0.2205 0.0246
vn 0.7791 -0.3658 0.5091
vn 0.9101 -0.3240 0.2585
vn 0.6640 -0.2404 0.7080
vn 0.8164 -0.3560 0.4547
vn 0.6990 -0.2518 0.6694
vn 0.9563 -0.2458 0.1585
vn 0.8138 -0.1590 0.5591
vn 0.8916 -0.1552 0.4254
vn 0.9502 -0.1820 0.2529
vn 0.9484 -0.1868 0.2561
vn 0.9717 -0.0402 0.2327
vn 0.4080 -0.0330 0.9124
vn 0.4135 -0.0296 0.9100
vn 0.7121 0.0102 0.7020
vn 0.8126 -0.0349 0.5818
vn 0.9059 0.0088 0.4233
vn 0.8745 0.0084 0.4849
vn 0.0020 0.0007 -1.0000
vn 0.0023 0.0020 -1.0000
vn 0.0018 0.0019 -1.0000
vn 0.0006 0.0020 -1.0000
vn 0.0005 0.0021 -1.0000
vn -0.0002 0.0007 -1.0000
vn -0.0005 0.0005 -1.0000
vn -0.0010 0.0005 -1.0000
vn -0.0010 0.0002 -1.0000
vn -0.0011 -0.0000 -1.0000
vn -0.0006 -0.0003 -1.0000
vn 0.0000 -0.0015 -1.0000
vn -0.0015 -0.0024 -1.0000
vn -0.0000 -0.0021 -1.0000
vn 0.0001 -0.0021 -1.0000
vn 0.0004 -0.0005 -1.0000
vn 0.0017 0.0003 -1.0000
vn 0.0023 -0.0004 -1.0000
vn -0.9764 -0.2161 -0.0008
vn 0.9509 -0.3094 0.0084
vn 0.9410 -0.3384 0.0053
vn 0.7646 -0.6444 -0.0077
vn 0.5091 -0.8606 0.0091
vn 0.5259 -0.8505 0.0066
vn 0.1911 -0.9815 -0.0057
vn -0.0299 -0.9995 0.0051
vn -0.4497 -0.8931 0.0067
vn 0.9794 0.2021 0.0011
vn 0.9844 0.1761 0.0001
vn 0.9953 -0.0970 -0.0006
vn 0.9691 -0.2465 0.0050
vn -0.9974 -0.0726 0.0032
vn -0.9825 -0.1865 -0.0011
vn -0.9999 0.0161 0.0015
vn -0.9896 0.1440 -0.0024
vn -0.9495 0.3138 0.0022
vn -0.8009 0.5988 -0.0018
vn -0.8061 0.5918 -0.0023
vn -0.4177 0.9086 -0.0036
vn -0.0136 0.9999 -0.0018
vn 0.3091 0.9510 0.0010
vn 0.7006 0.7135 -0.0034
vn 0.9265 0.3763 -0.0020
vn -0.9626 -0.2708 -0.0086
vn -0.9320 -0.3625 0.0040
vn -0.7734 -0.6338 -0.0051
vn -0.7540 -0.6569 0.0001
vn -0.3666 -0.9303 -0.0106
vn -0.0004 -0.9999 0.0112
vn 0.1738 -0.9847 -0.0123
vn 0.3614 -0.9324 0.0072
vn 0.5805 -0.8142 -0.0065
vn 0.6530 -0.7574 0.0045
vn 0.8373 -0.5467 -0.0052
vn 0.8690 -0.4948 0.0033
vn 0.9764 -0.2159 -0.0008
vn 0.9834 -0.1812 -0.0048
vn 0.9951 -0.0985 -0.0006
vn 0.9973 0.0739 -0.0004
vn 0.9858 0.1680 0.0028
vn 0.9979 0.0641 0.0001
vn 0.9938 0.1110 -0.0031
vn -0.5754 0.8179 0.0029
vn -0.1512 0.9885 0.0032
vn 0.2614 0.9652 -0.0018
vn 0.5479 0.8365 0.0026
vn 0.8310 0.5562 0.0029
vn -0.0853 -0.9964 0.0015
vn -0.4012 -0.9160 0.0027
vn -0.4367 -0.8996 -0.0004
vn -0.6376 -0.7704 -0.0002
vn -0.6964 -0.7176 0.0045
vn -0.8503 -0.5263 -0.0033
vn -0.9282 -0.3720 0.0067
vn -0.7084 0.1055 -0.6979
vn -0.5712 0.1695 -0.8031
vn -0.6305 0.4716 -0.6165
vn -0.2618 0.5871 -0.7660
vn -0.2635 0.5721 -0.7767
vn -0.0096 0.7956 -0.6057
vn 0.2286 0.7097 -0.6664
vn 0.2959 0.5096 -0.8079
vn 0.5319 0.5401 -0.6523
vn 0.6662 0.2734 -0.6938
vn 0.6067 0.1321 -0.7839
vn 0.6834 0.0772 -0.7260
vn 0.7647 -0.1444 -0.6280
vn 0.5598 -0.3635 -0.7447
vn 0.5210 -0.3656 -0.7713
vn 0.4448 -0.6263 -0.6402
vn 0.1196 -0.6628 -0.7392
vn 0.0798 -0.6178 -0.7823
vn -0.3067 -0.7693 -0.5605
vn -0.4567 -0.3890 -0.8001
vn -0.4709 -0.3912 -0.7907
vn -0.7739 -0.2195 -0.5940
vn -0.5261 -0.8504 0.0021
vn -0.0046 -1.0000 -0.0000
vn 0.6257 -0.7801 0.0030
vn 0.9869 -0.1615 0.0020
vn 0.9461 0.3240 0.0018
vn 0.6939 0.7201 0.0018
vn 0.2670 0.9637 0.0017
vn -0.2593 0.9658 0.0022
vn -0.7584 0.6517 0.0026
vn -0.8983 0.4395 -0.0021
vn -0.9841 0.1777 0.0021
vn -0.9175 -0.3977 0.0031
vn 0.8888 -0.4582 -0.0027
vn 0.8474 0.5310 -0.0021
vn -0.0176 0.9998 -0.0017
vn -0.4929 0.8701 -0.0024
vn -0.9925 -0.1222 -0.0030
vn -0.6687 -0.7436 -0.0032
vn 0.5235 -0.8520 -0.0008
vn 1.0000 -0.0020 -0.0013
vn 0.4587 0.8886 -0.0019
vn -0.0065 -1.0000 0.0000
usemtl None
s off
f 1//1 2//1 26//1
f 26//1 2//1 3//1
f 2//1 1//1 4//1
f 4//1 1//1 5//1
f 4//1 5//1 6//1
f 6//1 5//1 7//1
f 7//1 5//1 8//1
f 7//1 8//1 9//1
f 9//1 8//1 10//1
f 9//1 10//1 11//1
f 11//1 10//1 12//1
f 12//1 10//1 13//1
f 12//1 13//1 14//1
f 14//1 13//1 15//1
f 15//1 13//1 16//1
f 15//1 16//1 17//1
f 17//1 16//1 18//1
f 17//1 18//1 19//1
f 19//1 18//1 20//1
f 19//1 20//1 21//1
f 19//1 21//1 22//1
f 22//1 21//1 23//1
f 23//1 21//1 24//1
f 23//1 24//1 25//1
f 25//1 24//1 26//1
f 25//1 26//1 3//1
f 43//2 27//2 28//2
f 43//3 28//3 44//3
f 27//4 30//4 31//4
f 31//4 32//4 27//4
f 27//4 32//4 33//4
f 27//4 33//4 28//4
f 28//4 33//4 34//4
f 28//4 34//4 35//4
f 35//4 36//4 28//4
f 28//4 36//4 37//4
f 28//4 37//4 38//4
f 43//5 40//5 27//5
f 27//6 40//6 30//6
f 30//7 40//7 74//7
f 30//8 74//8 66//8
f 41//9 45//9 42//9
f 41//10 42//10 70//10
f 45//11 47//11 46//11
f 44//12 47//12 43//12
f 51//13 48//13 49//13
f 42//14 48//14 70//14
f 70//15 48//15 51//15
f 71//16 59//16 60//16
f 60//17 59//17 52//17
f 55//18 53//18 59//18
f 55//19 59//19 71//19
f 56//20 58//20 53//20
f 58//21 52//21 59//21
f 60//22 62//22 68//22
f 68//23 62//23 61//23
f 64//24 67//24 65//24
f 62//25 65//25 61//25
f 61//26 69//26 71//26
f 68//27 71//27 60//27
f 71//28 69//28 51//28
f 53//29 55//29 50//29
f 71//30 51//30 55//30
f 55//31 51//31 50//31
f 51//32 49//32 50//32
f 58//33 59//33 53//33
f 54//34 56//34 53//34
f 57//35 56//35 54//35
f 71//36 68//36 61//36
f 51//37 69//37 70//37
f 62//38 60//38 63//38
f 62//39 63//39 64//39
f 65//40 62//40 64//40
f 81//41 75//41 76//41
f 40//42 78//42 75//42
f 78//43 76//43 75//43
f 70//44 69//44 79//44
f 69//45 61//45 79//45
f 79//46 61//46 80//46
f 73//47 66//47 74//47
f 67//48 66//48 73//48
f 67//49 73//49 72//49
f 67//50 72//50 65//50
f 73//51 74//51 75//51
f 75//52 74//52 40//52
f 72//53 73//53 80//53
f 65//54 72//54 80//54
f 61//55 65//55 80//55
f 79//56 80//56 81//56
f 79//57 77//57 70//57
f 80//58 73//58 75//58
f 80//59 75//59 81//59
f 77//60 81//60 76//60
f 79//61 81//61 77//61
f 40//62 43//62 78//62
f 78//63 43//63 76//63
f 76//64 43//64 47//64
f 76//65 47//65 77//65
f 77//66 47//66 45//66
f 77//67 45//67 70//67
f 70//68 45//68 41//68
f 47//69 44//69 46//69
f 45//70 46//70 42//70
f 38//71 82//71 83//71
f 38//72 83//72 86//72
f 38//73 86//73 28//73
f 86//74 44//74 28//74
f 50//75 54//75 53//75
f 89//76 84//76 57//76
f 87//77 54//77 50//77
f 57//78 54//78 87//78
f 89//79 57//79 87//79
f 88//80 87//80 50//80
f 88//81 50//81 49//81
f 88//82 49//82 48//82
f 85//83 88//83 48//83
f 90//84 89//84 87//84
f 91//85 87//85 88//85
f 82//86 84//86 89//86
f 90//87 87//87 91//87
f 82//88 89//88 90//88
f 91//89 88//89 85//89
f 92//90 90//90 91//90
f 93//91 91//91 85//91
f 83//92 82//92 90//92
f 92//93 91//93 93//93
f 94//94 92//94 93//94
f 83//95 90//95 86//95
f 86//96 90//96 92//96
f 86//97 92//97 94//97
f 48//98 42//98 46//98
f 48//99 46//99 85//99
f 85//100 46//100 93//100
f 93//101 46//101 44//101
f 93//102 44//102 94//102
f 94//103 44//103 86//103
f 96//104 95//104 97//104
f 96//105 97//105 98//105
f 98//106 97//106 99//106
f 98//107 99//107 100//107
f 98//108 100//108 101//108
f 101//109 100//109 102//109
f 101//110 102//110 103//110
f 101//111 103//111 104//111
f 104//112 103//112 105//112
f 104//113 105//113 106//113
f 106//114 105//114 107//114
f 106//115 107//115 108//115
f 108//116 107//116 109//116
f 108//117 109//117 110//117
f 108//118 110//118 111//118
f 111//119 110//119 112//119
f 111//120 112//120 96//120
f 96//121 112//121 95//121
f 3//122 66//122 67//122
f 84//123 15//123 17//123
f 84//124 17//124 57//124
f 57//125 17//125 56//125
f 56//126 17//126 58//126
f 58//127 17//127 19//127
f 58//128 19//128 52//128
f 52//129 19//129 22//129
f 33//130 32//130 122//130
f 14//131 29//131 113//131
f 113//132 29//132 39//132
f 38//133 15//133 82//133
f 82//134 15//134 84//134
f 30//135 66//135 120//135
f 120//136 66//136 3//136
f 120//137 3//137 2//137
f 120//138 2//138 119//138
f 119//139 2//139 4//139
f 119//140 4//140 118//140
f 118//141 4//141 6//141
f 118//142 7//142 117//142
f 117//143 9//143 116//143
f 116//144 9//144 115//144
f 115//145 12//145 114//145
f 114//146 14//146 113//146
f 30//147 120//147 121//147
f 30//148 121//148 31//148
f 31//149 121//149 122//149
f 31//150 122//150 32//150
f 33//151 122//151 123//151
f 33//152 123//152 34//152
f 34//153 123//153 124//153
f 34//154 124//154 35//154
f 35//155 124//155 125//155
f 35//156 125//156 36//156
f 36//157 125//157 126//157
f 36//158 126//158 37//158
f 37//159 126//159 38//159
f 38//160 126//160 127//160
f 38//161 127//161 15//161
f 127//162 29//162 15//162
f 15//163 29//163 14//163
f 127//164 39//164 29//164
f 127//165 113//165 39//165
f 118//166 6//166 7//166
f 117//167 7//167 9//167
f 115//168 9//168 11//168
f 115//169 11//169 12//169
f 114//170 12//170 14//170
f 52//171 22//171 60//171
f 60//172 22//172 23//172
f 60//173 23//173 63//173
f 63//174 23//174 64//174
f 64//175 23//175 25//175
f 64//176 25//176 67//176
f 3//177 67//177 25//177
f 96//178 120//178 119//178
f 96//179 119//179 111//179
f 111//180 119//180 118//180
f 111//181 118//181 108//181
f 108//182 118//182 117//182
f 108//183 117//183 116//183
f 108//184 116//184 115//184
f 108//185 115//185 106//185
f 106//186 115//186 114//186
f 106//187 114//187 113//187
f 106//188 113//188 104//188
f 104//189 113//189 127//189
f 104//190 127//190 126//190
f 104//191 126//191 125//191
f 104//192 125//192 101//192
f 101//193 125//193 124//193
f 101//194 124//194 123//194
f 101//195 123//195 98//195
f 98//196 123//196 122//196
f 98//197 122//197 96//197
f 96//198 122//198 121//198
f 96//199 121//199 120//199
f 107//200 10//200 109//200
f 109//201 10//201 110//201
f 112//202 110//202 5//202
f 112//203 1//203 95//203
f 95//204 26//204 97//204
f 97//205 24//205 99//205
f 99//206 21//206 100//206
f 100//207 20//207 102//207
f 103//208 102//208 18//208
f 103//209 18//209 16//209
f 103//210 16//210 105//210
f 105//211 13//211 107//211
f 112//212 5//212 1//212
f 97//213 26//213 24//213
f 100//214 21//214 20//214
f 102//215 20//215 18//215
f 105//216 16//216 13//216
f 107//217 13//217 10//217
f 110//218 8//218 5//218
f 95//219 1//219 26//219
f 99//220 24//220 21//220
f 110//221 10//221 8//221
