# Blender v2.91.0 OBJ File: 'faithplate_new.blend'
# www.blender.org
mtllib piston.mtl
o Piston_arm
v 0.009021 -0.016649 -0.005891
v -0.008873 -0.016649 -0.005891
v 0.014959 -0.022587 -0.011829
v -0.014811 -0.022587 -0.011829
v -0.008873 0.016707 -0.005891
v -0.014811 0.022645 -0.011829
v 0.009021 0.016707 -0.005891
v 0.014959 0.022645 -0.011829
v 0.014959 0.022496 -0.082012
v 0.014959 -0.002505 -0.100974
v 0.014959 -0.022225 -0.083867
v 0.014959 -0.012781 -0.097384
v 0.014959 -0.018632 -0.091372
v 0.014959 0.010464 -0.098946
v 0.014959 0.019521 -0.090354
v -0.009469 -0.022587 -0.014798
v 0.009784 -0.022587 -0.014798
v -0.014811 -0.022140 -0.084422
v -0.009469 -0.022380 -0.082407
v -0.007510 -0.000800 -0.005891
v -0.005732 -0.004663 -0.005891
v -0.003423 -0.006570 -0.005891
v 0.000356 -0.007520 -0.005891
v 0.005044 -0.005641 -0.005891
v 0.007429 -0.001437 -0.005891
v 0.006824 0.003242 -0.005891
v 0.004120 0.006405 -0.005891
v -0.000308 0.007499 -0.005891
v -0.003919 0.006374 -0.005891
v -0.006355 0.003808 -0.005891
v -0.014811 0.001031 -0.084244
v -0.009469 0.002594 -0.084176
v -0.014811 0.006140 -0.082730
v -0.009469 0.008276 -0.080983
v -0.014811 0.010941 -0.076700
v -0.009469 0.011345 -0.073889
v -0.014811 0.009509 -0.067923
v -0.009469 0.006809 -0.064896
v -0.014811 0.002023 -0.063131
v -0.009469 -0.003192 -0.063729
v -0.014811 -0.006460 -0.065797
v -0.009469 -0.009398 -0.070093
v -0.014811 -0.009787 -0.072102
v -0.009469 -0.009011 -0.078382
v -0.014811 -0.008846 -0.078552
v -0.014811 -0.004202 -0.083142
v -0.009469 -0.003877 -0.083302
v 0.014919 0.002594 -0.084176
v 0.014919 -0.003192 -0.063729
v 0.014919 0.006809 -0.064896
v 0.014919 0.008276 -0.080983
v 0.014919 0.011345 -0.073889
v 0.014919 -0.003877 -0.083302
v 0.014919 -0.009011 -0.078382
v 0.014919 -0.009398 -0.070093
v 0.009784 0.001031 -0.084244
v 0.009784 0.006140 -0.082730
v 0.009784 0.010941 -0.076700
v 0.009784 0.009509 -0.067923
v 0.009784 0.002024 -0.063131
v 0.009784 -0.006460 -0.065797
v 0.009784 -0.009787 -0.072102
v 0.009784 -0.008846 -0.078552
v 0.009784 -0.004202 -0.083142
v 0.009784 0.005030 -0.100676
v 0.009784 -0.004476 -0.100601
v 0.009784 -0.013221 -0.097084
v 0.009784 -0.018867 -0.091026
v 0.009784 -0.022204 -0.083782
v 0.009784 0.022438 -0.082407
v 0.009784 0.022645 -0.014798
v 0.009784 0.013454 -0.096751
v 0.009784 0.019244 -0.090796
v -0.009469 -0.019186 -0.090796
v -0.014811 -0.015827 -0.094955
v -0.009469 -0.013396 -0.096751
v -0.014811 -0.007158 -0.099953
v -0.009469 -0.004972 -0.100676
v -0.014811 0.002563 -0.100974
v -0.009469 0.022645 -0.014798
v -0.009469 0.022130 -0.084598
v -0.009469 0.014731 -0.096192
v -0.009469 0.004534 -0.100601
v -0.014811 0.012839 -0.097384
v -0.014811 0.018690 -0.091372
v -0.014811 0.022283 -0.083867
v -0.007329 -0.000930 0.152845
v 0.007519 0.000587 0.152845
v -0.007207 0.001552 0.152845
v 0.006723 0.003422 0.152845
v -0.006350 0.003841 0.152845
v 0.004902 0.005727 0.152845
v -0.003566 0.006655 0.152845
v 0.001643 0.007378 0.152845
v 0.007001 -0.002713 0.152845
v -0.006574 -0.003309 0.152845
v 0.005591 -0.005014 0.152845
v -0.005100 -0.005360 0.152845
v 0.003618 -0.006511 0.152845
v -0.002162 -0.007139 0.152845
v 0.001309 -0.007335 0.152845
vn 0.0000 -0.7071 0.7071
vn -0.7071 0.0000 0.7071
vn 0.0000 0.7071 0.7071
vn 0.7071 0.0000 0.7071
vn 1.0000 0.0000 0.0000
vn 0.0000 -1.0000 0.0000
vn 0.0029 -1.0000 -0.0050
vn -0.0042 -1.0000 -0.0055
vn -0.0034 -1.0000 -0.0062
vn -0.0438 -0.9990 -0.0031
vn -0.0000 0.0000 1.0000
vn 0.0708 -0.2836 0.9563
vn -0.0888 -0.4880 0.8683
vn 0.1085 -0.7777 0.6192
vn -0.1382 -0.9090 0.3932
vn 0.1574 -0.9747 -0.1589
vn -0.1924 -0.8762 -0.4419
vn 0.2006 -0.5282 -0.8251
vn -0.2189 -0.1130 -0.9692
vn 0.1827 0.2947 -0.9380
vn -0.1655 0.7060 -0.6886
vn 0.1104 0.8791 -0.4638
vn -0.0899 0.9949 0.0465
vn 0.0259 0.9892 0.1443
vn -0.0010 0.7030 0.7112
vn -0.0205 0.6918 0.7218
vn 0.0167 0.2060 0.9784
vn -0.0517 0.1337 0.9897
vn -1.0000 -0.0000 0.0000
vn 0.0736 -0.2835 0.9561
vn -0.0923 -0.4878 0.8680
vn 0.1128 -0.7773 0.6189
vn -0.1436 -0.9083 0.3929
vn 0.1636 -0.9737 -0.1588
vn -0.1998 -0.8749 -0.4412
vn 0.2084 -0.5273 -0.8237
vn -0.2273 -0.1128 -0.9673
vn 0.1898 0.2943 -0.9367
vn -0.1720 0.7052 -0.6878
vn 0.1148 0.8786 -0.4635
vn -0.0935 0.9945 0.0465
vn 0.0269 0.9892 0.1443
vn -0.0213 0.6918 0.7218
vn 0.0174 0.2060 0.9784
vn -0.0538 0.1337 0.9896
vn -0.0690 -0.0079 -0.9976
vn 0.0574 -0.3293 -0.9425
vn -0.0221 -0.3730 -0.9276
vn 0.0205 -0.7165 -0.6973
vn -0.0122 -0.7315 -0.6818
vn 0.0122 -0.9019 -0.4318
vn -0.0106 -0.9082 -0.4183
vn 0.0918 -0.9306 -0.3544
vn -0.1377 -0.8496 -0.5092
vn 0.0916 -0.7140 -0.6942
vn -0.0637 -0.4985 -0.8645
vn 0.0501 -0.4219 -0.9053
vn -0.0915 -0.1040 -0.9904
vn 0.0150 0.9418 -0.3359
vn -0.0197 0.9343 -0.3558
vn 0.0250 0.6880 -0.7253
vn 0.1177 0.7120 -0.6923
vn -0.1391 0.4183 -0.8976
vn 0.1658 0.1524 -0.9743
vn -0.0028 1.0000 -0.0050
vn 0.0000 1.0000 0.0000
vn 0.0012 1.0000 -0.0021
vn -0.0110 0.9999 -0.0031
vn 0.0276 0.9996 -0.0074
vn 0.0668 0.0079 -0.9977
vn -0.0556 0.3293 -0.9426
vn 0.0641 0.3960 -0.9160
vn -0.0978 0.7132 -0.6941
vn 0.1379 0.8349 -0.5328
vn -0.0333 0.9014 -0.4316
vn 0.0000 0.0000 -1.0000
vn -0.9700 0.2431 -0.0018
vn 0.9917 0.1283 -0.0022
vn -0.9365 0.3507 -0.0000
vn -0.7254 0.6884 -0.0001
vn 0.2398 0.9708 -0.0022
vn 0.7601 0.6498 -0.0003
vn 0.8698 -0.4934 -0.0016
vn 0.3720 -0.9282 -0.0017
vn 0.3359 -0.9419 -0.0009
vn -0.0563 -0.9984 0.0015
vn -0.2436 -0.9699 -0.0015
vn -0.5181 -0.8553 0.0011
vn -0.6368 -0.7710 -0.0008
vn -0.9085 -0.4180 -0.0013
vn -0.9531 -0.3025 0.0008
vn -0.9988 0.0490 0.0012
vn -0.7109 0.7033 0.0003
vn -0.2974 0.9548 -0.0010
vn 0.4519 0.8921 0.0016
vn 0.7847 0.6199 -0.0012
vn 0.9628 0.2703 0.0003
vn 0.8527 -0.5224 -0.0009
vn 0.6047 -0.7965 0.0011
vn -0.8119 -0.5839 0.0007
vn -0.1375 0.9905 0.0024
vn 0.9879 -0.1551 0.0014
usemtl None
s off
f 1//1 2//1 3//1
f 3//1 2//1 4//1
f 2//2 5//2 4//2
f 4//2 5//2 6//2
f 5//3 7//3 6//3
f 6//3 7//3 8//3
f 8//4 7//4 3//4
f 3//4 7//4 1//4
f 8//5 3//5 9//5
f 9//5 3//5 10//5
f 10//5 3//5 11//5
f 10//5 11//5 12//5
f 12//5 11//5 13//5
f 10//5 14//5 9//5
f 14//5 15//5 9//5
f 4//6 16//6 3//6
f 3//6 16//6 17//6
f 3//7 17//7 11//7
f 11//8 17//8 69//8
f 4//9 18//9 16//9
f 16//10 18//10 19//10
f 20//11 5//11 2//11
f 20//11 2//11 21//11
f 21//11 2//11 22//11
f 22//11 2//11 23//11
f 23//11 2//11 1//11
f 23//11 1//11 24//11
f 24//11 1//11 25//11
f 25//11 1//11 7//11
f 25//11 7//11 26//11
f 26//11 7//11 27//11
f 27//11 7//11 28//11
f 28//11 7//11 5//11
f 28//11 5//11 29//11
f 29//11 5//11 30//11
f 30//11 5//11 20//11
f 31//12 32//12 33//12
f 33//13 32//13 34//13
f 33//14 34//14 35//14
f 35//15 34//15 36//15
f 35//16 36//16 37//16
f 37//17 36//17 38//17
f 37//18 38//18 39//18
f 39//19 38//19 40//19
f 39//20 40//20 41//20
f 41//21 40//21 42//21
f 41//22 42//22 43//22
f 43//23 42//23 44//23
f 43//24 44//24 45//24
f 45//25 44//25 46//25
f 46//26 44//26 47//26
f 46//27 47//27 31//27
f 31//28 47//28 32//28
f 48//29 49//29 50//29
f 48//29 50//29 51//29
f 51//29 50//29 52//29
f 49//29 48//29 53//29
f 49//29 53//29 54//29
f 49//29 54//29 55//29
f 56//30 48//30 57//30
f 57//31 48//31 51//31
f 57//32 51//32 58//32
f 58//33 51//33 52//33
f 58//34 52//34 59//34
f 59//35 52//35 50//35
f 59//36 50//36 60//36
f 60//37 50//37 49//37
f 60//38 49//38 61//38
f 61//39 49//39 55//39
f 61//40 55//40 62//40
f 62//41 55//41 54//41
f 62//42 54//42 63//42
f 63//25 54//25 64//25
f 64//43 54//43 53//43
f 64//44 53//44 56//44
f 56//45 53//45 48//45
f 65//46 10//46 66//46
f 66//47 10//47 12//47
f 66//48 12//48 67//48
f 67//49 12//49 13//49
f 67//50 13//50 68//50
f 68//51 13//51 11//51
f 68//52 11//52 69//52
f 56//29 70//29 73//29
f 70//29 56//29 57//29
f 70//29 57//29 58//29
f 70//29 58//29 71//29
f 71//29 58//29 59//29
f 71//29 59//29 60//29
f 71//29 60//29 17//29
f 60//29 61//29 17//29
f 17//29 61//29 62//29
f 62//29 63//29 17//29
f 17//29 63//29 69//29
f 69//29 63//29 64//29
f 69//29 64//29 68//29
f 68//29 64//29 67//29
f 67//29 64//29 66//29
f 66//29 64//29 56//29
f 66//29 56//29 65//29
f 65//29 56//29 72//29
f 72//29 56//29 73//29
f 19//53 18//53 74//53
f 74//54 18//54 75//54
f 74//55 75//55 76//55
f 76//56 75//56 77//56
f 76//57 77//57 78//57
f 78//58 77//58 79//58
f 32//5 76//5 78//5
f 47//5 19//5 32//5
f 32//5 19//5 74//5
f 19//5 47//5 44//5
f 19//5 44//5 16//5
f 16//5 44//5 42//5
f 42//5 40//5 16//5
f 16//5 40//5 80//5
f 80//5 40//5 38//5
f 80//5 38//5 81//5
f 81//5 38//5 36//5
f 36//5 34//5 81//5
f 81//5 34//5 32//5
f 81//5 32//5 82//5
f 82//5 32//5 83//5
f 83//5 32//5 78//5
f 74//5 76//5 32//5
f 70//59 9//59 15//59
f 70//60 15//60 73//60
f 73//61 15//61 14//61
f 73//62 14//62 72//62
f 72//63 14//63 65//63
f 65//64 14//64 10//64
f 86//65 6//65 80//65
f 80//66 6//66 8//66
f 80//66 8//66 71//66
f 71//67 8//67 9//67
f 71//68 9//68 70//68
f 80//69 81//69 86//69
f 78//70 79//70 83//70
f 83//71 79//71 84//71
f 83//72 84//72 82//72
f 82//73 84//73 85//73
f 82//74 85//74 81//74
f 81//75 85//75 86//75
f 6//29 39//29 4//29
f 86//29 37//29 6//29
f 35//29 86//29 85//29
f 84//29 33//29 85//29
f 84//29 79//29 33//29
f 33//29 79//29 31//29
f 31//29 79//29 46//29
f 46//29 79//29 77//29
f 46//29 77//29 45//29
f 45//29 77//29 75//29
f 45//29 75//29 18//29
f 45//29 18//29 43//29
f 4//29 41//29 18//29
f 18//29 41//29 43//29
f 33//29 35//29 85//29
f 86//29 35//29 37//29
f 6//29 37//29 39//29
f 39//29 41//29 4//29
f 17//76 16//76 71//76
f 71//76 16//76 80//76
f 87//11 88//11 89//11
f 89//11 88//11 90//11
f 89//11 90//11 91//11
f 91//11 90//11 92//11
f 91//11 92//11 93//11
f 93//11 92//11 94//11
f 88//11 87//11 95//11
f 95//11 87//11 96//11
f 95//11 96//11 97//11
f 97//11 96//11 98//11
f 97//11 98//11 99//11
f 99//11 98//11 100//11
f 99//11 100//11 101//11
f 20//77 89//77 30//77
f 26//78 88//78 25//78
f 30//79 89//79 91//79
f 30//80 91//80 29//80
f 28//81 94//81 27//81
f 26//82 27//82 90//82
f 25//83 95//83 24//83
f 24//84 99//84 23//84
f 23//85 99//85 101//85
f 23//86 101//86 100//86
f 23//87 100//87 22//87
f 22//88 100//88 98//88
f 22//89 98//89 21//89
f 20//90 21//90 96//90
f 20//91 96//91 87//91
f 20//92 87//92 89//92
f 29//93 91//93 93//93
f 28//94 29//94 93//94
f 27//95 94//95 92//95
f 27//96 92//96 90//96
f 26//97 90//97 88//97
f 24//98 95//98 97//98
f 24//99 97//99 99//99
f 21//100 98//100 96//100
f 28//101 93//101 94//101
f 25//102 88//102 95//102
