# Blender v2.91.0 OBJ File: 'faithplate_new.blend'
# www.blender.org
mtllib transparent.mtl
o Transparent_bit_of_plate_3_Transparent_bit_of_plate_3.001
v -0.150244 0.444639 0.359715
v -0.148950 0.426699 0.335908
v -0.328970 0.445729 0.358729
v -0.328970 0.425813 0.336709
v -0.175231 0.098597 0.632656
v -0.176721 0.117403 0.655680
v -0.218658 0.121873 0.611604
v -0.252371 0.167497 0.610373
v -0.265838 0.160442 0.576722
v -0.301340 0.223745 0.559500
v -0.307892 0.215346 0.527064
v -0.327339 0.293742 0.496192
v -0.328085 0.280770 0.467891
v -0.175222 0.198930 0.581944
v -0.175222 0.179014 0.559924
v 0.170007 0.198930 0.581944
v 0.170007 0.179014 0.559924
v 0.170062 0.098550 0.632699
v 0.320758 0.262794 0.484150
v 0.320874 0.282414 0.506437
v 0.286858 0.190579 0.549464
v 0.285327 0.208374 0.573403
v 0.227417 0.130735 0.603590
v 0.241738 0.162998 0.614442
v 0.172411 0.118077 0.655071
v 0.323814 0.446295 0.358217
v 0.323814 0.426379 0.336197
v -0.137038 0.389478 0.369572
v -0.127423 0.397973 0.401922
v -0.089468 0.347564 0.407481
v -0.088358 0.367110 0.429835
v -0.032883 0.349093 0.446131
v -0.017152 0.326516 0.426518
v 0.021597 0.348534 0.446637
v 0.056822 0.336056 0.417889
v 0.070169 0.361116 0.435257
v 0.116701 0.370193 0.387015
v 0.118930 0.393194 0.406244
v 0.144958 0.445229 0.359182
v 0.145014 0.426120 0.336432
v 0.147038 0.451296 0.313662
v 0.144328 0.466465 0.339975
v 0.111444 0.530869 0.281726
v 0.097494 0.517872 0.253448
v 0.015937 0.546692 0.227381
v 0.015157 0.565800 0.250132
v 0.323814 0.465923 0.340465
v 0.323814 0.446007 0.318445
v 0.321927 1.386446 -0.492092
v 0.322979 1.356838 -0.505347
v 0.013223 1.575889 -0.703465
v 0.013219 1.595874 -0.681507
v 0.088271 1.567736 -0.696091
v 0.092649 1.586691 -0.673202
v 0.208088 1.521860 -0.654599
v 0.211662 1.539539 -0.630555
v 0.297722 1.433528 -0.574708
v 0.292804 1.459666 -0.558315
v -0.147802 0.466499 0.339944
v -0.148742 0.449865 0.314956
v -0.123207 0.519008 0.292453
v -0.114842 0.506306 0.263908
v -0.064307 0.555545 0.259407
v -0.032884 0.545419 0.228533
v -0.016414 0.564890 0.250956
v -0.326882 0.445972 0.318476
v -0.326882 0.465888 0.340497
v -0.325713 1.361375 -0.509450
v -0.323935 1.397229 -0.501845
v -0.016952 1.596474 -0.682049
v -0.016814 1.576744 -0.704238
v -0.152298 1.571864 -0.659791
v -0.136377 1.556206 -0.685663
v -0.234501 1.504169 -0.638598
v -0.273219 1.490468 -0.586174
v -0.299499 1.435050 -0.576084
vn 0.0082 0.7988 -0.6015
vn -0.0066 0.7416 -0.6708
vn -0.9997 0.0093 0.0221
vn -1.0000 -0.0034 0.0030
vn -0.5843 -0.6466 0.4904
vn -0.6617 -0.4732 0.5816
vn -0.7394 -0.5354 0.4082
vn -0.8384 -0.3585 0.4107
vn -0.8676 -0.4100 0.2814
vn -0.9615 -0.1471 0.2323
vn -0.9738 -0.1961 0.1155
vn 0.9999 -0.0101 0.0091
vn 0.9987 0.0336 0.0372
vn 0.0000 -0.7417 0.6708
vn -0.9967 0.0363 0.0730
vn -1.0000 -0.0004 0.0003
vn 0.9444 -0.2493 0.2145
vn 0.9419 -0.2378 0.2370
vn 0.8050 -0.4503 0.3862
vn 0.8126 -0.4745 0.3384
vn 0.6543 -0.4855 0.5798
vn 0.6022 -0.6317 0.4881
vn 0.9999 -0.0099 0.0089
vn 0.9999 -0.0130 0.0062
vn -0.0080 0.7657 -0.6432
vn -0.0020 0.7417 -0.6708
vn 0.9710 0.2132 -0.1079
vn 0.9325 0.1659 -0.3207
vn 0.7622 0.5335 -0.3666
vn 0.7290 0.4970 -0.4707
vn 0.4011 0.6796 -0.6142
vn 0.3641 0.7423 -0.5625
vn 0.0138 0.6612 -0.7501
vn -0.1699 0.8108 -0.5601
vn -0.3289 0.6500 -0.6851
vn -0.6070 0.6450 -0.4642
vn -0.6626 0.5172 -0.5418
vn -0.9373 0.2724 -0.2172
vn -0.9361 0.2681 -0.2275
vn 0.0000 0.6708 0.7417
vn 0.0000 -0.6708 -0.7417
vn -0.9232 -0.3664 0.1161
vn -0.8474 -0.1784 0.5000
vn -0.4287 -0.7218 0.5433
vn -0.4390 -0.6954 0.5690
vn -0.0040 -0.8665 0.4991
vn -0.0403 -0.7411 0.6702
vn 0.9994 0.0244 0.0248
vn 1.0000 0.0005 -0.0005
vn 0.1449 0.7318 -0.6660
vn 0.1540 0.7463 -0.6475
vn 0.4585 0.6394 -0.6172
vn 0.4709 0.6758 -0.5670
vn 0.7985 0.4222 -0.4291
vn 0.7981 0.4207 -0.4313
vn 0.9562 0.2620 -0.1308
vn 0.9691 0.1287 -0.2106
vn -0.9997 -0.0187 -0.0186
vn -1.0000 -0.0015 0.0012
vn 0.9417 -0.2953 0.1612
vn 0.9065 -0.2169 0.3622
vn 0.6400 -0.6147 0.4611
vn 0.5307 -0.4809 0.6979
vn 0.2512 -0.8146 0.5228
vn 0.0291 -0.8326 0.5531
vn 0.0046 -0.7416 0.6708
vn -0.9983 0.0403 0.0432
vn -1.0000 0.0017 -0.0016
vn -0.2381 0.7251 -0.6462
vn -0.2251 0.7660 -0.6021
vn -0.5748 0.4937 -0.6525
vn -0.6514 0.6974 -0.2988
vn -0.8049 0.2871 -0.5194
vn -0.9062 0.4138 -0.0875
vn -0.9592 0.1034 -0.2631
vn 0.8743 -0.3330 -0.3531
vn 1.0000 0.0034 0.0032
usemtl None
s off
f 1//1 2//1 3//1
f 3//2 2//2 4//2
f 12//3 3//3 13//3
f 13//4 3//4 4//4
f 5//5 6//5 7//5
f 7//6 6//6 8//6
f 7//7 8//7 9//7
f 9//8 8//8 10//8
f 9//9 10//9 11//9
f 11//10 10//10 12//10
f 11//11 12//11 13//11
f 14//12 6//12 15//12
f 15//13 6//13 5//13
f 16//14 14//14 17//14
f 17//14 14//14 15//14
f 25//15 16//15 18//15
f 18//16 16//16 17//16
f 19//17 20//17 21//17
f 21//18 20//18 22//18
f 21//19 22//19 23//19
f 23//20 22//20 24//20
f 23//21 24//21 25//21
f 23//22 25//22 18//22
f 26//23 20//23 27//23
f 27//24 20//24 19//24
f 39//25 26//25 40//25
f 40//26 26//26 27//26
f 2//27 1//27 28//27
f 28//28 1//28 29//28
f 28//29 29//29 30//29
f 30//30 29//30 31//30
f 30//31 31//31 32//31
f 30//32 32//32 33//32
f 33//33 32//33 34//33
f 33//34 34//34 35//34
f 35//35 34//35 36//35
f 35//36 36//36 37//36
f 37//37 36//37 38//37
f 37//38 38//38 39//38
f 37//39 39//39 40//39
f 14//40 32//40 31//40
f 14//40 31//40 12//40
f 12//40 31//40 29//40
f 12//40 29//40 3//40
f 3//40 29//40 1//40
f 14//40 12//40 10//40
f 10//40 8//40 14//40
f 14//40 8//40 6//40
f 32//40 14//40 16//40
f 32//40 16//40 34//40
f 34//40 16//40 36//40
f 36//40 16//40 20//40
f 25//40 24//40 16//40
f 24//40 22//40 16//40
f 22//40 20//40 16//40
f 36//40 20//40 38//40
f 38//40 20//40 26//40
f 38//40 26//40 39//40
f 4//41 2//41 28//41
f 4//41 28//41 13//41
f 28//41 30//41 13//41
f 13//41 30//41 11//41
f 11//41 30//41 15//41
f 11//41 15//41 9//41
f 9//41 15//41 7//41
f 7//41 15//41 5//41
f 30//41 33//41 15//41
f 15//41 33//41 17//41
f 17//41 33//41 35//41
f 17//41 35//41 19//41
f 19//41 35//41 37//41
f 19//41 37//41 27//41
f 37//41 40//41 27//41
f 19//41 21//41 17//41
f 21//41 23//41 17//41
f 17//41 23//41 18//41
f 41//42 42//42 43//42
f 41//43 43//43 44//43
f 44//44 43//44 45//44
f 45//45 43//45 46//45
f 42//46 41//46 47//46
f 47//47 41//47 48//47
f 49//48 47//48 50//48
f 50//49 47//49 48//49
f 51//50 52//50 53//50
f 53//51 52//51 54//51
f 53//52 54//52 55//52
f 55//53 54//53 56//53
f 55//54 56//54 57//54
f 57//55 56//55 58//55
f 57//56 58//56 49//56
f 57//57 49//57 50//57
f 46//58 52//58 45//58
f 45//59 52//59 51//59
f 52//40 46//40 54//40
f 54//40 46//40 43//40
f 54//40 43//40 56//40
f 56//40 43//40 49//40
f 56//40 49//40 58//40
f 49//40 43//40 47//40
f 43//40 42//40 47//40
f 45//41 51//41 53//41
f 45//41 53//41 44//41
f 44//41 53//41 55//41
f 44//41 55//41 50//41
f 50//41 55//41 57//41
f 50//41 48//41 44//41
f 44//41 48//41 41//41
f 59//60 60//60 61//60
f 61//61 60//61 62//61
f 61//62 62//62 63//62
f 63//63 62//63 64//63
f 63//64 64//64 65//64
f 60//65 59//65 66//65
f 66//66 59//66 67//66
f 68//67 66//67 69//67
f 69//68 66//68 67//68
f 70//69 71//69 72//69
f 72//70 71//70 73//70
f 72//71 73//71 74//71
f 72//72 74//72 75//72
f 75//73 74//73 76//73
f 75//74 76//74 69//74
f 69//75 76//75 68//75
f 64//76 71//76 65//76
f 65//77 71//77 70//77
f 71//41 64//41 73//41
f 73//41 64//41 74//41
f 74//41 64//41 68//41
f 74//41 68//41 76//41
f 68//41 64//41 66//41
f 66//41 64//41 62//41
f 62//41 60//41 66//41
f 65//40 70//40 63//40
f 63//40 70//40 72//40
f 63//40 72//40 75//40
f 63//40 75//40 69//40
f 69//40 67//40 63//40
f 63//40 67//40 61//40
f 61//40 67//40 59//40
