# Blender v2.91.0 OBJ File: 'faithplate_new.blend'
# www.blender.org
mtllib wallhole.mtl
o Wall_hole_Cube.001
v -0.892867 0.211500 1.486212
v -0.892867 0.211500 -1.486212
v 0.892867 0.211500 1.486212
v 0.892867 0.211500 -1.486212
v -0.892867 -0.580141 -1.486212
v 0.892867 -0.580141 -1.486212
v -0.892867 -0.567051 1.486212
v -0.892867 -0.580141 1.520770
v -0.892867 -0.593230 1.486212
v -0.892867 -0.580141 1.451653
v 0.892867 -0.580141 1.520770
v 0.892867 -0.567051 1.486212
v 0.892867 -0.580141 1.451653
v 0.892867 -0.593230 1.486212
v -0.892867 -0.907126 1.486212
v -0.881438 -0.914331 1.486212
v -0.881438 -0.914331 -1.467187
v -0.892867 -0.907126 -1.486212
v 0.881438 -0.914331 1.486212
v 0.892867 -0.907126 1.486212
v 0.881438 -0.914331 -1.467187
v 0.892867 -0.907126 -1.486212
v 0.881438 -0.914331 1.623801
v 0.892867 -0.907126 1.642825
v -0.881438 -0.914331 1.623801
v -0.892867 -0.907126 1.642825
v 0.892867 -0.587030 1.642825
v 0.892867 -0.580141 1.624637
v -0.892867 -0.580141 1.624637
v -0.892867 -0.587030 1.642825
vt 0.376600 0.250000
vt 0.449210 0.250000
vt 0.449210 0.002907
vt 0.449210 0.500000
vt 0.625000 0.250000
vt 0.376600 0.500000
vt 0.126600 0.750000
vt 0.373400 0.750000
vt 0.373400 0.750000
vt 0.449210 0.747093
vt 0.625000 0.750000
vt 0.625000 0.500000
vt 0.447680 0.000000
vt 0.376600 0.000000
vt 0.446303 0.000000
vt 0.376600 0.750000
vt 0.446303 0.750000
vt 0.376600 0.750000
vt 0.447680 0.750000
vt 0.625000 0.000000
vt 0.376600 1.000000
vt 0.449210 0.000000
vt 0.449210 0.000000
vt 0.452116 0.000000
vt 0.449210 0.750000
vt 0.452116 0.750000
vt 0.449210 1.000000
vt 0.452116 1.000000
vt 0.125000 0.750000
vt 0.126600 0.501600
vt 0.125000 0.500000
vt 0.373400 0.501600
vt 0.375000 0.500000
vt 0.375000 0.750000
vt 0.126600 0.750000
vt 0.125000 0.750000
vt 0.449210 0.750000
vt 0.447680 1.000000
vt 0.449210 1.000000
vt 0.376600 0.000000
vt 0.449210 0.000000
vt 0.449210 0.750000
vt 0.625000 1.000000
vn 1.0000 0.0000 0.0000
vn 0.0000 0.0000 1.0000
vn 0.0000 1.0000 0.0000
vn -1.0000 0.0000 0.0000
vn 0.0000 0.0000 -1.0000
vn 0.0000 -0.9352 -0.3542
vn 0.5333 0.8459 0.0000
vn 0.0000 0.9352 0.3542
vn -0.5333 0.8459 0.0000
vn 0.0000 0.9352 -0.3542
vn 0.0000 -1.0000 0.0000
usemtl None
s off
f 18/1/1 5/2/1 10/3/1
f 6/4/2 2/5/2 5/2/2
f 22/6/2 5/2/2 18/1/2
f 16/7/3 23/8/3 19/9/3
f 13/10/4 3/11/4 4/12/4
f 30/13/1 26/14/1 9/15/1
f 20/16/4 14/17/4 13/10/4
f 24/18/4 27/19/4 14/17/4
f 10/3/1 2/5/1 1/20/1
f 26/21/5 27/19/5 24/18/5
f 8/22/1 10/23/1 7/24/1
f 11/25/4 13/10/4 14/17/4
f 12/26/6 8/27/6 7/28/6
f 7/28/5 3/11/5 12/26/5
f 15/29/7 17/30/7 18/31/7
f 18/31/8 21/32/8 22/33/8
f 20/16/9 21/32/9 19/9/9
f 24/34/10 25/35/10 26/36/10
f 23/8/9 20/16/9 19/9/9
f 25/35/7 15/29/7 26/36/7
f 16/7/3 21/32/3 17/30/3
f 28/37/6 30/38/6 29/39/6
f 11/25/11 29/39/11 8/27/11
f 9/15/1 15/40/1 10/3/1
f 15/40/1 18/1/1 10/3/1
f 6/4/2 4/12/2 2/5/2
f 22/6/2 6/4/2 5/2/2
f 16/7/3 25/35/3 23/8/3
f 4/12/4 6/4/4 13/10/4
f 13/10/4 12/26/4 3/11/4
f 26/14/1 15/40/1 9/15/1
f 9/15/1 8/22/1 30/13/1
f 8/22/1 29/41/1 30/13/1
f 6/4/4 22/6/4 13/10/4
f 22/6/4 20/16/4 13/10/4
f 28/37/4 11/25/4 27/19/4
f 11/25/4 14/17/4 27/19/4
f 14/17/4 20/16/4 24/18/4
f 1/20/1 7/24/1 10/3/1
f 10/3/1 5/2/1 2/5/1
f 26/21/5 30/38/5 27/19/5
f 8/22/1 9/15/1 10/23/1
f 11/25/4 12/42/4 13/10/4
f 12/26/6 11/25/6 8/27/6
f 7/28/5 1/43/5 3/11/5
f 15/29/7 16/7/7 17/30/7
f 18/31/8 17/30/8 21/32/8
f 20/16/9 22/6/9 21/32/9
f 24/34/10 23/8/10 25/35/10
f 23/8/9 24/18/9 20/16/9
f 25/35/7 16/7/7 15/29/7
f 16/7/3 19/9/3 21/32/3
f 28/37/6 27/19/6 30/38/6
f 11/25/11 28/37/11 29/39/11
