# Blender v2.82 (sub 7) OBJ File: ''
# www.blender.org
mtllib pellet.mtl
o Sphere
v 0.000000 -0.000000 -1.000000
v 0.000000 -0.866025 -0.500000
v 0.250000 0.866025 -0.433013
v 0.433013 0.500000 -0.750000
v 0.500000 -0.000000 -0.866025
v 0.433013 -0.500000 -0.750000
v 0.250000 -0.866025 -0.433013
v -0.000000 1.000000 -0.000000
v 0.433013 0.866025 -0.250000
v 0.750000 0.500000 -0.433013
v 0.866025 -0.000000 -0.500000
v 0.750000 -0.500000 -0.433013
v 0.433013 -0.866025 -0.250000
v 0.500000 0.866025 -0.000000
v 0.866025 0.500000 -0.000000
v 1.000000 -0.000000 -0.000000
v 0.866025 -0.500000 -0.000000
v 0.500000 -0.866025 -0.000000
v 0.433013 0.866025 0.250000
v 0.750000 0.500000 0.433013
v 0.866025 -0.000000 0.500000
v 0.750000 -0.500000 0.433012
v 0.433013 -0.866025 0.250000
v 0.250000 0.866025 0.433012
v 0.433013 0.500000 0.750000
v 0.500000 -0.000000 0.866025
v 0.433013 -0.500000 0.750000
v 0.250000 -0.866025 0.433012
v -0.000000 0.866025 0.500000
v -0.000000 0.500000 0.866025
v -0.000000 -0.000000 1.000000
v -0.000000 -0.500000 0.866025
v 0.000000 -0.866025 0.500000
v 0.000000 -1.000000 -0.000000
v -0.250000 0.866025 0.433012
v -0.433013 0.500000 0.750000
v -0.500000 -0.000000 0.866025
v -0.433013 -0.500000 0.750000
v -0.250000 -0.866025 0.433012
v -0.433013 0.866025 0.250000
v -0.750000 0.500000 0.433012
v -0.866025 -0.000000 0.500000
v -0.750000 -0.500000 0.433012
v -0.433013 -0.866025 0.250000
v -0.500000 0.866025 -0.000000
v -0.866025 0.500000 -0.000000
v -1.000000 -0.000000 -0.000000
v -0.866025 -0.500000 -0.000000
v -0.500000 -0.866025 -0.000000
v -0.433012 0.866025 -0.250000
v -0.750000 0.500000 -0.433013
v -0.866025 -0.000000 -0.500000
v -0.750000 -0.500000 -0.433013
v -0.433013 -0.866025 -0.250000
v -0.250000 0.866025 -0.433013
v -0.433013 0.500000 -0.750000
v -0.500000 -0.000000 -0.866025
v -0.433013 -0.500000 -0.750000
v -0.250000 -0.866025 -0.433013
v 0.000000 0.866025 -0.500000
v 0.000000 0.500000 -0.866025
v 0.000000 -0.500000 -0.866025
vt 0.750000 0.333333
vt 0.666667 0.166667
vt 0.750000 0.166667
vt 0.750000 0.666667
vt 0.666667 0.500000
vt 0.750000 0.500000
vt 0.750000 0.833333
vt 0.708333 1.000000
vt 0.666667 0.833333
vt 0.708333 0.000000
vt 0.666667 0.333333
vt 0.666667 0.666667
vt 0.583333 0.500000
vt 0.625000 1.000000
vt 0.583333 0.833333
vt 0.625000 0.000000
vt 0.583333 0.166667
vt 0.583333 0.333333
vt 0.583333 0.666667
vt 0.541667 1.000000
vt 0.500000 0.833333
vt 0.541667 0.000000
vt 0.500000 0.166667
vt 0.500000 0.333333
vt 0.500000 0.666667
vt 0.500000 0.500000
vt 0.458333 0.000000
vt 0.416667 0.166667
vt 0.416667 0.333333
vt 0.416667 0.666667
vt 0.416667 0.500000
vt 0.458333 1.000000
vt 0.416667 0.833333
vt 0.375000 0.000000
vt 0.333333 0.166667
vt 0.333333 0.333333
vt 0.333333 0.666667
vt 0.333333 0.500000
vt 0.375000 1.000000
vt 0.333333 0.833333
vt 0.291667 0.000000
vt 0.250000 0.166667
vt 0.250000 0.333333
vt 0.250000 0.666667
vt 0.250000 0.500000
vt 0.291667 1.000000
vt 0.250000 0.833333
vt 0.166667 0.333333
vt 0.166667 0.666667
vt 0.166667 0.166667
vt 0.166667 0.500000
vt 0.208333 1.000000
vt 0.166667 0.833333
vt 0.208333 0.000000
vt 0.083333 0.666667
vt 0.083333 0.166667
vt 0.083333 0.500000
vt 0.125000 1.000000
vt 0.083333 0.833333
vt 0.125000 0.000000
vt 0.083333 0.333333
vt 0.000000 0.166667
vt 0.000000 0.500000
vt 0.041667 1.000000
vt 0.000000 0.833333
vt 0.041667 0.000000
vt 0.000000 0.333333
vt 0.000000 0.666667
vt 1.000000 0.333333
vt 0.916667 0.166667
vt 1.000000 0.166667
vt 1.000000 0.666667
vt 0.916667 0.500000
vt 1.000000 0.500000
vt 1.000000 0.833333
vt 0.958333 1.000000
vt 0.916667 0.833333
vt 0.958333 0.000000
vt 0.916667 0.333333
vt 0.916667 0.666667
vt 0.833333 0.166667
vt 0.833333 0.500000
vt 0.875000 1.000000
vt 0.833333 0.833333
vt 0.875000 0.000000
vt 0.833333 0.333333
vt 0.833333 0.666667
vt 0.791667 1.000000
vt 0.791667 0.000000
vn 0.1862 -0.6947 -0.6947
vn 0.2506 0.2506 -0.9351
vn 0.0692 0.9636 -0.2582
vn 0.0692 -0.9636 -0.2582
vn 0.2506 -0.2506 -0.9351
vn 0.1862 0.6947 -0.6947
vn 0.6846 0.2506 -0.6846
vn 0.1890 0.9636 -0.1890
vn 0.1890 -0.9636 -0.1890
vn 0.6846 -0.2506 -0.6846
vn 0.5086 0.6947 -0.5086
vn 0.5086 -0.6947 -0.5086
vn 0.2582 0.9636 -0.0692
vn 0.2582 -0.9636 -0.0692
vn 0.9351 -0.2506 -0.2506
vn 0.6947 0.6947 -0.1862
vn 0.6947 -0.6947 -0.1862
vn 0.9351 0.2506 -0.2506
vn 0.2582 -0.9636 0.0692
vn 0.9351 -0.2506 0.2506
vn 0.6947 0.6947 0.1862
vn 0.6947 -0.6947 0.1862
vn 0.9351 0.2506 0.2506
vn 0.2582 0.9636 0.0692
vn 0.1890 -0.9636 0.1890
vn 0.6846 -0.2506 0.6846
vn 0.5086 0.6947 0.5086
vn 0.5086 -0.6947 0.5086
vn 0.6846 0.2506 0.6846
vn 0.1890 0.9636 0.1890
vn 0.0692 -0.9636 0.2582
vn 0.2506 -0.2506 0.9351
vn 0.1862 0.6947 0.6947
vn 0.1862 -0.6947 0.6947
vn 0.2506 0.2506 0.9351
vn 0.0692 0.9636 0.2582
vn -0.2506 -0.2506 0.9351
vn -0.1862 0.6947 0.6947
vn -0.1862 -0.6947 0.6947
vn -0.2506 0.2506 0.9351
vn -0.0692 0.9636 0.2582
vn -0.0692 -0.9636 0.2582
vn -0.5086 0.6947 0.5086
vn -0.5086 -0.6947 0.5086
vn -0.6846 0.2506 0.6846
vn -0.1890 0.9636 0.1890
vn -0.1890 -0.9636 0.1890
vn -0.6846 -0.2506 0.6846
vn -0.6947 -0.6947 0.1862
vn -0.9351 0.2506 0.2506
vn -0.2582 0.9636 0.0692
vn -0.2582 -0.9636 0.0692
vn -0.9351 -0.2506 0.2506
vn -0.6947 0.6947 0.1862
vn -0.6947 -0.6947 -0.1862
vn -0.9351 0.2506 -0.2506
vn -0.2582 0.9636 -0.0692
vn -0.2582 -0.9636 -0.0692
vn -0.9351 -0.2506 -0.2506
vn -0.6947 0.6947 -0.1862
vn -0.5086 -0.6947 -0.5086
vn -0.6846 0.2506 -0.6846
vn -0.1890 0.9636 -0.1890
vn -0.1890 -0.9636 -0.1890
vn -0.6846 -0.2506 -0.6846
vn -0.5086 0.6947 -0.5086
vn -0.1862 -0.6947 -0.6947
vn -0.2506 0.2506 -0.9351
vn -0.0692 0.9636 -0.2582
vn -0.0692 -0.9636 -0.2582
vn -0.2506 -0.2506 -0.9351
vn -0.1862 0.6947 -0.6947
usemtl None
s off
f 62/1/1 7/2/1 2/3/1
f 61/4/2 5/5/2 1/6/2
f 60/7/3 8/8/3 3/9/3
f 34/10/4 2/3/4 7/2/4
f 1/6/5 6/11/5 62/1/5
f 60/7/6 4/12/6 61/4/6
f 4/12/7 11/13/7 5/5/7
f 3/9/8 8/14/8 9/15/8
f 34/16/9 7/2/9 13/17/9
f 5/5/10 12/18/10 6/11/10
f 3/9/11 10/19/11 4/12/11
f 7/2/12 12/18/12 13/17/12
f 9/15/13 8/20/13 14/21/13
f 34/22/14 13/17/14 18/23/14
f 11/13/15 17/24/15 12/18/15
f 9/15/16 15/25/16 10/19/16
f 12/18/17 18/23/17 13/17/17
f 10/19/18 16/26/18 11/13/18
f 34/27/19 18/23/19 23/28/19
f 16/26/20 22/29/20 17/24/20
f 14/21/21 20/30/21 15/25/21
f 17/24/22 23/28/22 18/23/22
f 15/25/23 21/31/23 16/26/23
f 14/21/24 8/32/24 19/33/24
f 34/34/25 23/28/25 28/35/25
f 21/31/26 27/36/26 22/29/26
f 19/33/27 25/37/27 20/30/27
f 22/29/28 28/35/28 23/28/28
f 20/30/29 26/38/29 21/31/29
f 19/33/30 8/39/30 24/40/30
f 34/41/31 28/35/31 33/42/31
f 26/38/32 32/43/32 27/36/32
f 24/40/33 30/44/33 25/37/33
f 27/36/34 33/42/34 28/35/34
f 25/37/35 31/45/35 26/38/35
f 24/40/36 8/46/36 29/47/36
f 31/45/37 38/48/37 32/43/37
f 29/47/38 36/49/38 30/44/38
f 32/43/39 39/50/39 33/42/39
f 30/44/40 37/51/40 31/45/40
f 29/47/41 8/52/41 35/53/41
f 34/54/42 33/42/42 39/50/42
f 35/53/43 41/55/43 36/49/43
f 38/48/44 44/56/44 39/50/44
f 36/49/45 42/57/45 37/51/45
f 35/53/46 8/58/46 40/59/46
f 34/60/47 39/50/47 44/56/47
f 37/51/48 43/61/48 38/48/48
f 43/61/49 49/62/49 44/56/49
f 41/55/50 47/63/50 42/57/50
f 40/59/51 8/64/51 45/65/51
f 34/66/52 44/56/52 49/62/52
f 42/57/53 48/67/53 43/61/53
f 40/59/54 46/68/54 41/55/54
f 48/69/55 54/70/55 49/71/55
f 46/72/56 52/73/56 47/74/56
f 45/75/57 8/76/57 50/77/57
f 34/78/58 49/71/58 54/70/58
f 47/74/59 53/79/59 48/69/59
f 45/75/60 51/80/60 46/72/60
f 53/79/61 59/81/61 54/70/61
f 51/80/62 57/82/62 52/73/62
f 50/77/63 8/83/63 55/84/63
f 34/85/64 54/70/64 59/81/64
f 52/73/65 58/86/65 53/79/65
f 50/77/66 56/87/66 51/80/66
f 58/86/67 2/3/67 59/81/67
f 57/82/68 61/4/68 1/6/68
f 55/84/69 8/88/69 60/7/69
f 34/89/70 59/81/70 2/3/70
f 57/82/71 62/1/71 58/86/71
f 55/84/72 61/4/72 56/87/72
f 62/1/1 6/11/1 7/2/1
f 61/4/2 4/12/2 5/5/2
f 1/6/5 5/5/5 6/11/5
f 60/7/6 3/9/6 4/12/6
f 4/12/7 10/19/7 11/13/7
f 5/5/10 11/13/10 12/18/10
f 3/9/11 9/15/11 10/19/11
f 7/2/12 6/11/12 12/18/12
f 11/13/15 16/26/15 17/24/15
f 9/15/16 14/21/16 15/25/16
f 12/18/17 17/24/17 18/23/17
f 10/19/18 15/25/18 16/26/18
f 16/26/20 21/31/20 22/29/20
f 14/21/21 19/33/21 20/30/21
f 17/24/22 22/29/22 23/28/22
f 15/25/23 20/30/23 21/31/23
f 21/31/26 26/38/26 27/36/26
f 19/33/27 24/40/27 25/37/27
f 22/29/28 27/36/28 28/35/28
f 20/30/29 25/37/29 26/38/29
f 26/38/32 31/45/32 32/43/32
f 24/40/33 29/47/33 30/44/33
f 27/36/34 32/43/34 33/42/34
f 25/37/35 30/44/35 31/45/35
f 31/45/37 37/51/37 38/48/37
f 29/47/38 35/53/38 36/49/38
f 32/43/39 38/48/39 39/50/39
f 30/44/40 36/49/40 37/51/40
f 35/53/43 40/59/43 41/55/43
f 38/48/44 43/61/44 44/56/44
f 36/49/45 41/55/45 42/57/45
f 37/51/48 42/57/48 43/61/48
f 43/61/49 48/67/49 49/62/49
f 41/55/50 46/68/50 47/63/50
f 42/57/53 47/63/53 48/67/53
f 40/59/54 45/65/54 46/68/54
f 48/69/55 53/79/55 54/70/55
f 46/72/56 51/80/56 52/73/56
f 47/74/59 52/73/59 53/79/59
f 45/75/60 50/77/60 51/80/60
f 53/79/61 58/86/61 59/81/61
f 51/80/62 56/87/62 57/82/62
f 52/73/65 57/82/65 58/86/65
f 50/77/66 55/84/66 56/87/66
f 58/86/67 62/1/67 2/3/67
f 57/82/68 56/87/68 61/4/68
f 57/82/71 1/6/71 62/1/71
f 55/84/72 60/7/72 61/4/72
