# Blender v2.82 (sub 7) OBJ File: ''
# www.blender.org
mtllib bounce.mtl
o Circle.001_Circle.004
v 0.000000 0.222621 0.000000
v 0.000000 0.222621 -0.270020
v -0.233844 0.222621 -0.135010
v -0.233844 0.222621 0.135010
v 0.000000 0.222621 0.270020
v 0.233844 0.222621 0.135010
v 0.233844 0.222621 -0.135010
v -0.233844 0.210265 -0.135010
v 0.000000 0.210265 -0.270020
v 0.000000 0.210265 0.000000
v -0.233844 0.210265 0.135010
v 0.000000 0.210265 0.270020
v 0.233844 0.210265 0.135010
v 0.233844 0.210265 -0.135010
vt 0.500000 0.500000
vt 0.066987 0.750000
vt 0.500000 1.000000
vt 0.066987 0.250000
vt 0.500000 0.000000
vt 0.933013 0.250000
vt 0.933013 0.750000
vt 0.500000 0.500000
vt 0.500000 1.000000
vt 0.066987 0.750000
vt 0.066987 0.250000
vt 0.500000 0.000000
vt 0.933013 0.250000
vt 0.933013 0.750000
vn 0.0000 -1.0000 0.0000
vn 0.0000 1.0000 0.0000
vn -0.5000 0.0000 -0.8660
vn 0.5000 0.0000 -0.8660
vn 1.0000 0.0000 -0.0000
vn -0.5000 0.0000 0.8660
vn 0.5000 0.0000 0.8660
vn -1.0000 0.0000 0.0000
usemtl None
s off
f 1/1/1 3/2/1 2/3/1
f 1/1/1 4/4/1 3/2/1
f 1/1/1 5/5/1 4/4/1
f 1/1/1 6/6/1 5/5/1
f 1/1/1 7/7/1 6/6/1
f 1/1/1 2/3/1 7/7/1
f 10/8/2 9/9/2 8/10/2
f 10/8/2 8/10/2 11/11/2
f 10/8/2 11/11/2 12/12/2
f 10/8/2 12/12/2 13/13/2
f 10/8/2 13/13/2 14/14/2
f 10/8/2 14/14/2 9/9/2
f 6/6/3 12/12/3 5/5/3
f 5/5/4 11/11/4 4/4/4
f 4/4/5 8/10/5 3/2/5
f 2/3/6 14/14/6 7/7/6
f 3/2/7 9/9/7 2/3/7
f 7/7/8 13/13/8 6/6/8
f 6/6/3 13/13/3 12/12/3
f 5/5/4 12/12/4 11/11/4
f 4/4/5 11/11/5 8/10/5
f 2/3/6 9/9/6 14/14/6
f 3/2/7 8/10/7 9/9/7
f 7/7/8 14/14/8 13/13/8
