# Blender v2.82 (sub 7) OBJ File: ''
# www.blender.org
mtllib piece.mtl
o Circle_Circle.001
v 0.001584 0.209366 0.007477
v 0.000000 0.207537 0.008674
v -0.001584 0.209366 0.007477
v 0.229484 0.209366 0.139055
v 0.229239 0.209366 0.139969
v 0.224243 0.207537 0.138141
v -0.229484 0.209366 0.139055
v -0.224243 0.207537 0.138141
v -0.229239 0.209366 0.139969
v 0.001584 0.212824 0.007477
v -0.001584 0.212824 0.007477
v 0.000000 0.214653 0.008674
v 0.229484 0.212824 0.139055
v 0.224243 0.214653 0.138141
v 0.229239 0.212824 0.139969
v -0.229484 0.212824 0.139055
v -0.229239 0.212824 0.139969
v -0.224243 0.214653 0.138141
vt 0.930045 0.251713
vt 0.502968 0.498286
vt 0.502968 0.498287
vt 0.503427 0.501979
vt 0.923650 0.259362
vt 0.503427 0.987211
vt 0.501713 0.997032
vt 0.931299 0.252968
vt 0.931299 0.252968
vt 0.503427 0.501979
vt 0.503427 0.987211
vt 0.923650 0.259362
vt 0.500000 0.503427
vt 0.500000 0.996573
vt 0.500000 0.503427
vt 0.500000 0.996573
vt 0.501713 0.997032
vt 0.930045 0.251714
vn -0.5000 0.0000 -0.8660
vn 0.0000 1.0000 0.0000
vn -0.0000 0.0000 1.0000
vn 0.0000 -1.0000 0.0000
vn 0.0000 -0.5478 -0.8366
vn 0.3151 -0.9453 0.0844
vn -0.3151 -0.9453 0.0845
vn 0.0000 0.5477 -0.8366
vn 0.3151 0.9453 0.0844
vn -0.3151 0.9453 0.0844
vn 0.3536 -0.7071 -0.6124
vn -0.3536 -0.7071 -0.6124
vn 0.0000 -0.7071 0.7071
vn 0.3536 0.7071 -0.6124
vn -0.3536 0.7071 -0.6124
vn 0.0000 0.7071 0.7071
vn 0.9659 0.0000 0.2588
vn -0.9659 0.0000 0.2588
vn 0.0000 0.0000 -1.0000
vn 0.5000 0.0000 -0.8660
usemtl None
s off
f 7/1/1 11/2/1 3/3/1
f 12/4/2 18/5/2 14/6/2
f 5/7/3 17/8/3 9/9/3
f 2/10/4 6/11/4 8/12/4
f 1/13/5 2/10/5 3/3/5
f 4/14/6 5/7/6 6/11/6
f 7/1/7 8/12/7 9/9/7
f 10/15/8 11/2/8 12/4/8
f 13/16/9 14/6/9 15/17/9
f 16/18/10 17/8/10 18/5/10
f 1/13/11 6/11/11 2/10/11
f 3/3/12 8/12/12 7/1/12
f 5/7/13 8/12/13 6/11/13
f 14/6/14 10/15/14 12/4/14
f 18/5/15 11/2/15 16/18/15
f 18/5/16 15/17/16 14/6/16
f 13/16/17 5/7/17 4/14/17
f 7/1/18 17/8/18 16/18/18
f 1/13/19 11/2/19 10/15/19
f 1/13/20 13/16/20 4/14/20
f 7/1/1 16/18/1 11/2/1
f 5/7/3 15/17/3 17/8/3
f 1/13/11 4/14/11 6/11/11
f 3/3/12 2/10/12 8/12/12
f 5/7/13 9/9/13 8/12/13
f 14/6/14 13/16/14 10/15/14
f 18/5/15 12/4/15 11/2/15
f 18/5/16 17/8/16 15/17/16
f 13/16/17 15/17/17 5/7/17
f 7/1/18 9/9/18 17/8/18
f 1/13/19 3/3/19 11/2/19
f 1/13/20 10/15/20 13/16/20
