# Blender v2.91.0 OBJ File: 'exitdoor.blend'
# www.blender.org
mtllib doorcr.mtl
o doorcircle.r_Cylinder.006
v -0.024453 0.165743 -0.000000
v 0.024453 0.165743 -0.000000
v -0.024453 0.117198 0.118987
v 0.024453 0.117198 0.118987
v -0.024453 0.162558 -0.032829
v 0.024453 0.162558 -0.032829
v -0.024453 0.137810 0.093488
v 0.024453 0.137810 0.093488
v -0.024453 0.153127 -0.064396
v 0.024453 0.153127 -0.064396
v -0.024453 0.153127 0.064395
v 0.024453 0.153127 0.064395
v -0.024453 0.137810 -0.093488
v 0.024453 0.137810 -0.093488
v -0.024453 0.162558 0.032828
v 0.024453 0.162558 0.032828
v -0.024453 0.117198 -0.118988
v 0.024453 0.117198 -0.118988
v -0.024453 0.092082 -0.139915
v 0.024453 0.092082 -0.139915
v -0.024453 0.063427 -0.155465
v 0.024453 0.063427 -0.155465
v -0.024453 0.032335 -0.165041
v 0.024453 0.032335 -0.165041
v -0.024453 0.000000 -0.168274
v 0.024453 0.000000 -0.168274
v 0.024453 0.000000 0.168274
v 0.024453 -0.000001 0.168274
v 0.024453 0.063427 0.155465
v 0.024453 0.032335 0.165040
v -0.024453 -0.000000 -0.168274
v 0.024453 -0.000000 -0.168274
v 0.024453 0.092082 0.139914
v -0.024453 -0.000001 0.168274
v -0.024453 0.000000 0.168274
v -0.024453 0.032335 0.165040
v -0.024453 0.063427 0.155465
v -0.024453 0.092082 0.139914
vt 0.968750 0.786884
vt 1.000000 0.713116
vt 1.000000 0.786884
vt 0.937500 0.786884
vt 0.968750 0.713116
vt 0.906250 0.713116
vt 0.937500 0.713116
vt 0.875000 0.786884
vt 0.906250 0.786884
vt 0.843750 0.786884
vt 0.875000 0.713116
vt 0.843750 0.713116
vt 0.812500 0.786884
vt 0.812500 0.713116
vt 0.781250 0.786884
vt 0.750000 0.786884
vt 0.781250 0.713116
vt 0.750000 0.713116
vt 0.750000 0.786884
vt 0.250000 0.713116
vt 0.250000 0.786884
vt 0.250000 0.786884
vt 0.218750 0.713116
vt 0.218750 0.786884
vt 0.187500 0.713116
vt 0.187500 0.786884
vt 0.156250 0.713116
vt 0.156250 0.786884
vt 0.125000 0.786884
vt 0.093750 0.786884
vt 0.125000 0.713116
vt 0.062500 0.786884
vt 0.093750 0.713116
vt 0.031250 0.786884
vt 0.062500 0.713116
vt 0.000000 0.786884
vt 0.031250 0.713116
vt 0.506957 1.000000
vt 0.499119 1.000000
vt 0.534477 1.000000
vt 0.534477 0.500000
vt 0.446097 0.500000
vt 0.491008 0.500000
vt 0.446097 0.500000
vt 0.534477 1.000000
vt 0.446097 1.000000
vt 0.750000 0.713116
vt 0.250000 0.713116
vt 0.000000 0.713116
vt 0.491008 1.000000
vt 0.482873 1.000000
vt 0.474964 1.000000
vt 0.467531 1.000000
vt 0.460827 1.000000
vt 0.455104 1.000000
vt 0.450604 1.000000
vt 0.447544 1.000000
vt 0.446097 1.000000
vt 0.533344 1.000000
vt 0.530572 1.000000
vt 0.526324 1.000000
vt 0.520811 1.000000
vt 0.514272 1.000000
vt 0.533344 0.500000
vt 0.534477 0.500000
vt 0.447544 0.500000
vt 0.450604 0.500000
vt 0.455104 0.500000
vt 0.460827 0.500000
vt 0.467531 0.500000
vt 0.474964 0.500000
vt 0.482873 0.500000
vt 0.499119 0.500000
vt 0.506957 0.500000
vt 0.514272 0.500000
vt 0.520811 0.500000
vt 0.526324 0.500000
vt 0.530572 0.500000
vn 0.0000 0.9953 -0.0966
vn 0.0000 0.9581 -0.2863
vn 0.0000 0.8849 -0.4659
vn 0.0000 0.7777 -0.6286
vn 0.0000 0.6401 -0.7683
vn 0.0000 0.4770 -0.8789
vn 0.0000 0.2943 -0.9557
vn 0.0000 0.0995 -0.9950
vn 0.0000 0.0000 -1.0000
vn 0.0000 -0.0797 0.9968
vn 0.0000 0.0995 0.9950
vn 0.0000 0.2943 0.9557
vn 0.0000 0.4770 0.8789
vn 0.0000 0.6401 0.7683
vn 0.0000 0.7777 0.6286
vn 0.0000 0.8849 0.4659
vn 0.0000 0.9581 0.2863
vn 0.0000 0.9953 0.0966
vn 1.0000 0.0000 -0.0000
vn -1.0000 0.0000 -0.0000
vn 0.0000 -1.0000 -0.0000
vn 1.0000 -0.0020 0.0000
vn -1.0000 -0.0032 -0.0000
usemtl None
s off
f 6/1/1 1/2/1 2/3/1
f 10/4/2 5/5/2 6/1/2
f 10/4/3 13/6/3 9/7/3
f 18/8/4 13/6/4 14/9/4
f 20/10/5 17/11/5 18/8/5
f 19/12/6 22/13/6 21/14/6
f 24/15/7 21/14/7 22/13/7
f 26/16/8 23/17/8 24/15/8
f 31/18/9 26/16/9 32/19/9
f 35/20/10 28/21/10 27/22/10
f 36/23/11 27/22/11 30/24/11
f 37/25/12 30/24/12 29/26/12
f 38/27/13 29/26/13 33/28/13
f 4/29/14 38/27/14 33/28/14
f 8/30/15 3/31/15 4/29/15
f 12/32/16 7/33/16 8/30/16
f 16/34/17 11/35/17 12/32/17
f 2/36/18 15/37/18 16/34/18
f 10/38/19 6/39/19 26/40/19
f 31/41/20 35/42/20 1/43/20
f 34/44/21 32/45/21 28/46/21
f 6/1/1 5/5/1 1/2/1
f 10/4/2 9/7/2 5/5/2
f 10/4/3 14/9/3 13/6/3
f 18/8/4 17/11/4 13/6/4
f 20/10/5 19/12/5 17/11/5
f 19/12/6 20/10/6 22/13/6
f 24/15/7 23/17/7 21/14/7
f 26/16/8 25/47/8 23/17/8
f 31/18/9 25/47/9 26/16/9
f 35/20/10 34/48/10 28/21/10
f 36/23/11 35/20/11 27/22/11
f 37/25/12 36/23/12 30/24/12
f 38/27/13 37/25/13 29/26/13
f 4/29/14 3/31/14 38/27/14
f 8/30/15 7/33/15 3/31/15
f 12/32/16 11/35/16 7/33/16
f 16/34/17 15/37/17 11/35/17
f 2/36/18 1/49/18 15/37/18
f 6/39/19 2/50/19 26/40/19
f 2/50/19 16/51/19 28/46/19
f 26/40/19 2/50/19 28/46/19
f 16/51/19 12/52/19 28/46/19
f 12/52/19 8/53/19 28/46/19
f 8/53/19 4/54/19 28/46/19
f 4/54/19 33/55/19 28/46/19
f 33/55/19 29/56/19 28/46/19
f 29/56/19 30/57/19 28/46/19
f 30/57/22 27/58/22 28/46/22
f 28/46/19 32/45/19 26/40/19
f 26/40/19 24/59/19 22/60/19
f 22/60/19 20/61/19 26/40/19
f 20/61/19 18/62/19 26/40/19
f 18/62/19 14/63/19 26/40/19
f 14/63/19 10/38/19 26/40/19
f 23/64/20 25/65/20 31/41/20
f 31/41/23 34/44/23 35/42/23
f 35/42/20 36/66/20 37/67/20
f 37/67/20 38/68/20 35/42/20
f 38/68/20 3/69/20 35/42/20
f 3/69/20 7/70/20 35/42/20
f 7/70/20 11/71/20 35/42/20
f 11/71/20 15/72/20 35/42/20
f 15/72/20 1/43/20 35/42/20
f 1/43/20 5/73/20 31/41/20
f 5/73/20 9/74/20 31/41/20
f 9/74/20 13/75/20 31/41/20
f 13/75/20 17/76/20 31/41/20
f 17/76/20 19/77/20 31/41/20
f 19/77/20 21/78/20 31/41/20
f 21/78/20 23/64/20 31/41/20
f 34/44/21 31/41/21 32/45/21
