# Blender v2.91.0 OBJ File: 'exitdoor.blend'
# www.blender.org
mtllib dorrcl.mtl
o doorcircle.l_Cylinder.007
v -0.024453 -0.092082 0.139915
v 0.024453 -0.092082 0.139915
v -0.024453 0.000000 -0.168274
v 0.024453 0.000000 -0.168274
v -0.024453 -0.063427 0.155465
v 0.024453 -0.063427 0.155465
v -0.024453 0.000000 -0.168274
v 0.024453 0.000000 -0.168274
v -0.024453 -0.032335 0.165040
v 0.024453 -0.032335 0.165040
v -0.024453 -0.032335 -0.165041
v 0.024453 -0.032335 -0.165041
v -0.024453 -0.063427 -0.155465
v 0.024453 -0.063427 -0.155465
v -0.024453 0.000000 0.168274
v 0.024453 0.000000 0.168274
v -0.024453 -0.092082 -0.139915
v 0.024453 -0.092082 -0.139915
v -0.024453 0.000001 0.168274
v 0.024453 0.000001 0.168274
v -0.024453 -0.117198 -0.118988
v 0.024453 -0.117198 -0.118988
v -0.024453 -0.137810 -0.093488
v 0.024453 -0.137810 -0.093488
v -0.024453 -0.153127 -0.064396
v 0.024453 -0.153127 -0.064396
v -0.024453 -0.162558 -0.032829
v 0.024453 -0.162558 -0.032829
v -0.024453 -0.165743 0.000000
v 0.024453 -0.165743 0.000000
v -0.024453 -0.162558 0.032829
v 0.024453 -0.162558 0.032829
v -0.024453 -0.153127 0.064396
v 0.024453 -0.153127 0.064396
v -0.024453 -0.137810 0.093488
v 0.024453 -0.137810 0.093488
v -0.024453 -0.117198 0.118988
v 0.024453 -0.117198 0.118988
vt 0.750000 0.786884
vt 0.750000 0.713116
vt 0.750000 0.713116
vt 0.718750 0.713116
vt 0.750000 0.786884
vt 0.718750 0.786884
vt 0.687500 0.713116
vt 0.687500 0.786884
vt 0.656250 0.786884
vt 0.656250 0.713116
vt 0.625000 0.713116
vt 0.625000 0.786884
vt 0.593750 0.713116
vt 0.593750 0.786884
vt 0.562500 0.786884
vt 0.531250 0.713116
vt 0.531250 0.786884
vt 0.500000 0.786884
vt 0.468750 0.713116
vt 0.468750 0.786884
vt 0.437500 0.713116
vt 0.437500 0.786884
vt 0.406250 0.713116
vt 0.406250 0.786884
vt 0.375000 0.713116
vt 0.375000 0.786884
vt 0.343750 0.713116
vt 0.343750 0.786884
vt 0.312500 0.713116
vt 0.312500 0.786884
vt 0.281250 0.786884
vt 0.281250 0.713116
vt 0.250000 0.786884
vt 0.250000 0.713116
vt 0.250000 0.786884
vt 0.250000 0.713116
vt 0.534477 1.000000
vt 0.446097 1.000000
vt 0.491008 1.000000
vt 0.446097 0.500000
vt 0.534477 0.500000
vt 0.491008 0.500000
vt 0.446097 0.500000
vt 0.446097 1.000000
vt 0.562500 0.713116
vt 0.500000 0.713116
vt 0.533344 1.000000
vt 0.534477 1.000000
vt 0.447544 1.000000
vt 0.450604 1.000000
vt 0.455104 1.000000
vt 0.460827 1.000000
vt 0.467530 1.000000
vt 0.474963 1.000000
vt 0.482873 1.000000
vt 0.499119 1.000000
vt 0.506957 1.000000
vt 0.514272 1.000000
vt 0.520811 1.000000
vt 0.526324 1.000000
vt 0.530572 1.000000
vt 0.460827 0.500000
vt 0.455104 0.500000
vt 0.450604 0.500000
vt 0.447544 0.500000
vt 0.534477 0.500000
vt 0.533344 0.500000
vt 0.530572 0.500000
vt 0.526324 0.500000
vt 0.520811 0.500000
vt 0.514272 0.500000
vt 0.506957 0.500000
vt 0.499119 0.500000
vt 0.482873 0.500000
vt 0.474963 0.500000
vt 0.467531 0.500000
vn 0.0000 0.1414 -0.9899
vn 0.0000 -0.0995 -0.9950
vn 0.0000 -0.2943 -0.9557
vn 0.0000 -0.4770 -0.8789
vn 0.0000 -0.6401 -0.7683
vn 0.0000 -0.7777 -0.6286
vn 0.0000 -0.8849 -0.4659
vn 0.0000 -0.9581 -0.2863
vn 0.0000 -0.9953 -0.0966
vn 0.0000 -0.9953 0.0966
vn 0.0000 -0.9581 0.2863
vn 0.0000 -0.8849 0.4659
vn 0.0000 -0.7777 0.6286
vn 0.0000 -0.6401 0.7683
vn 0.0000 -0.4770 0.8789
vn 0.0000 -0.2943 0.9557
vn -0.0000 -0.0995 0.9950
vn 0.0000 0.1414 0.9899
vn 1.0000 -0.0000 0.0000
vn -1.0000 0.0000 -0.0000
vn 0.0000 1.0000 -0.0000
vn 0.0000 0.1390 0.9903
vn 1.0000 -0.0013 0.0000
vn 1.0000 0.0057 0.0000
usemtl None
s off
f 4/1/1 7/2/1 3/3/1
f 11/4/2 8/5/2 12/6/2
f 13/7/3 12/6/3 14/8/3
f 13/7/4 18/9/4 17/10/4
f 21/11/5 18/9/5 22/12/5
f 23/13/6 22/12/6 24/14/6
f 26/15/7 23/13/7 24/14/7
f 27/16/8 26/15/8 28/17/8
f 30/18/9 27/16/9 28/17/9
f 31/19/10 30/18/10 32/20/10
f 33/21/11 32/20/11 34/22/11
f 35/23/12 34/22/12 36/24/12
f 37/25/13 36/24/13 38/26/13
f 1/27/14 38/26/14 2/28/14
f 5/29/15 2/28/15 6/30/15
f 5/29/16 10/31/16 9/32/16
f 9/32/17 16/33/17 15/34/17
f 15/34/18 20/35/18 19/36/18
f 4/37/19 16/38/19 30/39/19
f 15/40/20 3/41/20 29/42/20
f 4/37/21 19/43/21 20/44/21
f 4/1/1 8/5/1 7/2/1
f 11/4/2 7/2/2 8/5/2
f 13/7/3 11/4/3 12/6/3
f 13/7/4 14/8/4 18/9/4
f 21/11/5 17/10/5 18/9/5
f 23/13/6 21/11/6 22/12/6
f 26/15/7 25/45/7 23/13/7
f 27/16/8 25/45/8 26/15/8
f 30/18/9 29/46/9 27/16/9
f 31/19/10 29/46/10 30/18/10
f 33/21/11 31/19/11 32/20/11
f 35/23/12 33/21/12 34/22/12
f 37/25/13 35/23/13 36/24/13
f 1/27/14 37/25/14 38/26/14
f 5/29/15 1/27/15 2/28/15
f 5/29/16 6/30/16 10/31/16
f 9/32/17 10/31/17 16/33/17
f 15/34/22 16/33/22 20/35/22
f 12/47/23 8/48/23 4/37/23
f 4/37/24 20/44/24 16/38/24
f 16/38/19 10/49/19 6/50/19
f 6/50/19 2/51/19 16/38/19
f 2/51/19 38/52/19 16/38/19
f 38/52/19 36/53/19 16/38/19
f 36/53/19 34/54/19 16/38/19
f 34/54/19 32/55/19 16/38/19
f 32/55/19 30/39/19 16/38/19
f 30/39/19 28/56/19 4/37/19
f 28/56/19 26/57/19 4/37/19
f 26/57/19 24/58/19 4/37/19
f 24/58/19 22/59/19 4/37/19
f 22/59/19 18/60/19 4/37/19
f 18/60/19 14/61/19 4/37/19
f 14/61/19 12/47/19 4/37/19
f 37/62/20 1/63/20 15/40/20
f 1/63/20 5/64/20 15/40/20
f 5/64/20 9/65/20 15/40/20
f 15/40/20 19/43/20 3/41/20
f 3/41/20 7/66/20 11/67/20
f 11/67/20 13/68/20 3/41/20
f 13/68/20 17/69/20 3/41/20
f 17/69/20 21/70/20 3/41/20
f 21/70/20 23/71/20 3/41/20
f 23/71/20 25/72/20 3/41/20
f 25/72/20 27/73/20 3/41/20
f 27/73/20 29/42/20 3/41/20
f 29/42/20 31/74/20 15/40/20
f 31/74/20 33/75/20 15/40/20
f 33/75/20 35/76/20 15/40/20
f 35/76/20 37/62/20 15/40/20
f 4/37/21 3/41/21 19/43/21
