# Blender v2.91.0 OBJ File: 'exitdoor.blend'
# www.blender.org
mtllib doorr.mtl
o door.r_Cylinder.004
v -0.024453 0.246309 -0.711036
v 0.024453 0.246309 -0.711036
v -0.024453 0.362921 -0.566774
v 0.024453 0.362921 -0.566774
v -0.024453 0.449571 -0.402187
v 0.024453 0.449571 -0.402187
v -0.024453 0.502931 -0.223600
v 0.024453 0.502931 -0.223600
v -0.024453 0.520948 -0.037875
v 0.024453 0.520948 -0.037875
v -0.024453 0.502930 0.147849
v 0.024453 0.502930 0.147849
v -0.024453 0.449571 0.326437
v 0.024453 0.449571 0.326437
v -0.024453 0.362921 0.491024
v 0.024453 0.362921 0.491024
v -0.024453 0.246309 0.635285
v 0.024453 0.246309 0.635285
v -0.024453 0.104217 0.753678
v 0.024453 0.104217 0.753678
v -0.024453 -0.057895 0.841651
v 0.024453 -0.057895 0.841651
v -0.024453 -0.233797 0.895825
v 0.024453 -0.233797 0.895825
v -0.024453 -0.416728 0.914117
v 0.024453 -0.416728 0.914117
v 0.024453 -0.416727 -0.821178
v -0.024453 0.114119 -0.821178
v 0.024453 0.114119 -0.821178
v -0.024453 -0.416727 -0.821178
v -0.024453 -0.250984 -0.000888
v 0.024453 -0.250984 -0.000888
v -0.024453 -0.299529 0.118099
v 0.024453 -0.299529 0.118099
v -0.024453 -0.254169 -0.033717
v 0.024453 -0.254169 -0.033717
v -0.024453 -0.278917 0.092599
v 0.024453 -0.278917 0.092599
v -0.024453 -0.263601 -0.065284
v 0.024453 -0.263601 -0.065284
v -0.024453 -0.263600 0.063507
v 0.024453 -0.263600 0.063507
v -0.024453 -0.278917 -0.094376
v 0.024453 -0.278917 -0.094376
v -0.024453 -0.254169 0.031940
v 0.024453 -0.254169 0.031940
v -0.024453 -0.299529 -0.119876
v 0.024453 -0.299529 -0.119876
v -0.024453 -0.324645 -0.140803
v 0.024453 -0.324645 -0.140803
v -0.024453 -0.353300 -0.156353
v 0.024453 -0.353300 -0.156353
v -0.024453 -0.384392 -0.165929
v 0.024453 -0.384392 -0.165929
v -0.024453 -0.416727 -0.169162
v 0.024453 -0.416727 -0.169162
v 0.024453 -0.416727 0.167386
v 0.024453 -0.416728 0.167385
v 0.024453 -0.353300 0.154576
v 0.024453 -0.384392 0.164152
v 0.024453 -0.416727 -0.169162
v -0.024453 -0.416727 -0.169162
v 0.024453 -0.324645 0.139026
v -0.024453 -0.416728 0.167385
v -0.024453 -0.416727 0.167386
v -0.024453 -0.384392 0.164152
v -0.024453 -0.353300 0.154576
v -0.024453 -0.324645 0.139026
vt 0.593750 0.500000
vt 0.625000 1.000000
vt 0.625000 0.500000
vt 0.562500 0.500000
vt 0.593750 1.000000
vt 0.531250 1.000000
vt 0.562500 1.000000
vt 0.500000 0.500000
vt 0.531250 0.500000
vt 0.468750 0.500000
vt 0.500000 1.000000
vt 0.437500 1.000000
vt 0.468750 1.000000
vt 0.437500 0.500000
vt 0.406250 1.000000
vt 0.375000 0.500000
vt 0.406250 0.500000
vt 0.343750 0.500000
vt 0.375000 1.000000
vt 0.312500 1.000000
vt 0.343750 1.000000
vt 0.281250 0.500000
vt 0.312500 0.500000
vt 0.250000 0.500000
vt 0.281250 1.000000
vt 0.746943 0.625000
vt 0.753057 0.691356
vt 0.746943 0.691356
vt 0.654072 1.000000
vt 0.968750 0.713116
vt 1.000000 0.786884
vt 1.000000 0.713116
vt 0.937500 0.713116
vt 0.968750 0.786884
vt 0.906250 0.713116
vt 0.937500 0.786884
vt 0.875000 0.786884
vt 0.875000 0.713116
vt 0.843750 0.713116
vt 0.812500 0.713116
vt 0.843750 0.786884
vt 0.781250 0.713116
vt 0.812500 0.786884
vt 0.750000 0.786884
vt 0.750000 0.713116
vt 0.750000 0.786884
vt 0.750000 0.713116
vt 0.250000 0.713116
vt 0.250000 0.786884
vt 0.250000 0.786884
vt 0.218750 0.713116
vt 0.250000 0.713116
vt 0.187500 0.713116
vt 0.218750 0.786884
vt 0.156250 0.713116
vt 0.187500 0.786884
vt 0.125000 0.713116
vt 0.156250 0.786884
vt 0.093750 0.786884
vt 0.093750 0.713116
vt 0.062500 0.786884
vt 0.062500 0.713116
vt 0.031250 0.786884
vt 0.031250 0.713116
vt 0.000000 0.713116
vt 0.000000 0.786884
vt 0.474964 1.000000
vt 0.482873 1.000000
vt 0.482873 0.500000
vt 0.474964 0.500000
vt 0.446097 0.500000
vt 0.250000 1.000000
vt 0.534477 0.500000
vt 0.705701 1.000000
vt 0.534477 1.000000
vt 0.753057 0.625000
vt 0.654072 0.500000
vt 0.906250 0.786884
vt 0.781250 0.786884
vt 0.125000 0.786884
vt 0.534477 1.000000
vt 0.530572 1.000000
vt 0.526324 1.000000
vt 0.533344 1.000000
vt 0.520811 1.000000
vt 0.514272 1.000000
vt 0.506957 1.000000
vt 0.499119 1.000000
vt 0.491008 1.000000
vt 0.467531 1.000000
vt 0.460827 1.000000
vt 0.455104 1.000000
vt 0.450604 1.000000
vt 0.447544 1.000000
vt 0.446097 1.000000
vt 0.446097 1.000000
vt 0.705701 0.500000
vt 0.534477 0.500000
vt 0.533344 0.500000
vt 0.526324 0.500000
vt 0.530572 0.500000
vt 0.514272 0.500000
vt 0.520811 0.500000
vt 0.506957 0.500000
vt 0.499119 0.500000
vt 0.491008 0.500000
vt 0.467531 0.500000
vt 0.455104 0.500000
vt 0.460827 0.500000
vt 0.450604 0.500000
vt 0.447544 0.500000
vt 0.446097 0.500000
vn 0.0000 0.7777 -0.6286
vn 0.0000 0.8849 -0.4659
vn 0.0000 0.9581 -0.2863
vn 0.0000 0.9953 -0.0966
vn 0.0000 0.9953 0.0966
vn 0.0000 0.9581 0.2863
vn 0.0000 0.8849 0.4659
vn 0.0000 0.7777 0.6286
vn 0.0000 0.6401 0.7683
vn 0.0000 0.4770 0.8789
vn 0.0000 0.2943 0.9557
vn 0.0000 0.0995 0.9950
vn 0.0000 0.0000 -1.0000
vn 0.0000 0.6401 -0.7683
vn 0.0000 -0.9953 0.0966
vn 0.0000 -0.9581 0.2863
vn 0.0000 -0.8849 0.4659
vn 0.0000 -0.7777 0.6286
vn 0.0000 -0.6401 0.7683
vn 0.0000 -0.4770 0.8789
vn 0.0000 -0.2943 0.9557
vn 0.0000 -0.0995 0.9950
vn 0.0000 0.0000 1.0000
vn 0.0000 0.0780 -0.9970
vn 0.0000 -0.0995 -0.9950
vn 0.0000 -0.2943 -0.9557
vn 0.0000 -0.4770 -0.8789
vn 0.0000 -0.6401 -0.7683
vn 0.0000 -0.7777 -0.6286
vn 0.0000 -0.8849 -0.4659
vn 0.0000 -0.9581 -0.2863
vn 0.0000 -0.9953 -0.0966
vn 1.0000 -0.0000 0.0000
vn -1.0000 0.0000 -0.0000
vn 0.0000 -1.0000 -0.0000
vn 1.0000 -0.0052 0.0000
usemtl None
s off
f 3/1/1 2/2/1 1/3/1
f 5/4/2 4/5/2 3/1/2
f 5/4/3 8/6/3 6/7/3
f 9/8/4 8/6/4 7/9/4
f 11/10/5 10/11/5 9/8/5
f 11/10/6 14/12/6 12/13/6
f 13/14/7 16/15/7 14/12/7
f 17/16/8 16/15/8 15/17/8
f 19/18/9 18/19/9 17/16/9
f 19/18/10 22/20/10 20/21/10
f 23/22/11 22/20/11 21/23/11
f 25/24/12 24/25/12 23/22/12
f 27/26/13 28/27/13 29/28/13
f 29/29/14 1/3/14 2/2/14
f 35/30/15 32/31/15 31/32/15
f 39/33/16 36/34/16 35/30/16
f 43/35/17 40/36/17 39/33/17
f 48/37/18 43/35/18 47/38/18
f 49/39/19 48/37/19 47/38/19
f 51/40/20 50/41/20 49/39/20
f 53/42/21 52/43/21 51/40/21
f 56/44/22 53/42/22 55/45/22
f 61/46/23 55/45/23 62/47/23
f 64/48/24 57/49/24 58/50/24
f 66/51/25 57/49/25 65/52/25
f 67/53/26 60/54/26 66/51/26
f 68/55/27 59/56/27 67/53/27
f 33/57/28 63/58/28 68/55/28
f 38/59/29 33/57/29 37/60/29
f 42/61/30 37/60/30 41/62/30
f 46/63/31 41/62/31 45/64/31
f 46/63/32 31/65/32 32/66/32
f 42/67/33 46/68/33 14/12/33
f 45/69/34 41/70/34 13/14/34
f 64/71/35 26/72/35 25/24/35
f 62/73/35 27/74/35 61/75/35
f 3/1/1 4/5/1 2/2/1
f 5/4/2 6/7/2 4/5/2
f 5/4/3 7/9/3 8/6/3
f 9/8/4 10/11/4 8/6/4
f 11/10/5 12/13/5 10/11/5
f 11/10/6 13/14/6 14/12/6
f 13/14/7 15/17/7 16/15/7
f 17/16/8 18/19/8 16/15/8
f 19/18/9 20/21/9 18/19/9
f 19/18/10 21/23/10 22/20/10
f 23/22/11 24/25/11 22/20/11
f 25/24/12 26/72/12 24/25/12
f 27/26/13 30/76/13 28/27/13
f 29/29/14 28/77/14 1/3/14
f 35/30/15 36/34/15 32/31/15
f 39/33/16 40/36/16 36/34/16
f 43/35/17 44/78/17 40/36/17
f 48/37/18 44/78/18 43/35/18
f 49/39/19 50/41/19 48/37/19
f 51/40/20 52/43/20 50/41/20
f 53/42/21 54/79/21 52/43/21
f 56/44/22 54/79/22 53/42/22
f 61/46/23 56/44/23 55/45/23
f 64/48/24 65/52/24 57/49/24
f 66/51/25 60/54/25 57/49/25
f 67/53/26 59/56/26 60/54/26
f 68/55/27 63/58/27 59/56/27
f 33/57/28 34/80/28 63/58/28
f 38/59/29 34/80/29 33/57/29
f 42/61/30 38/59/30 37/60/30
f 46/63/31 42/61/31 41/62/31
f 46/63/32 45/64/32 31/65/32
f 56/81/33 61/75/33 27/74/33
f 27/74/33 29/29/33 52/82/33
f 29/29/33 2/2/33 50/83/33
f 27/74/33 54/84/33 56/81/33
f 2/2/33 4/5/33 48/85/33
f 4/5/33 6/7/33 44/86/33
f 6/7/33 8/6/33 40/87/33
f 8/6/33 10/11/33 36/88/33
f 6/7/33 40/87/33 44/86/33
f 10/11/33 12/13/33 32/89/33
f 12/13/33 14/12/33 46/68/33
f 14/12/33 16/15/33 42/67/33
f 16/15/33 18/19/33 38/90/33
f 10/11/33 32/89/33 36/88/33
f 18/19/33 20/21/33 34/91/33
f 20/21/33 22/20/33 63/92/33
f 59/93/33 22/20/33 24/25/33
f 24/25/33 26/72/33 60/94/33
f 26/72/36 58/95/36 57/96/36
f 26/72/33 57/96/33 60/94/33
f 22/20/33 59/93/33 63/92/33
f 24/25/33 60/94/33 59/93/33
f 8/6/33 36/88/33 40/87/33
f 4/5/33 44/86/33 48/85/33
f 54/84/33 27/74/33 52/82/33
f 52/82/33 29/29/33 50/83/33
f 20/21/33 63/92/33 34/91/33
f 48/85/33 50/83/33 2/2/33
f 18/19/33 34/91/33 38/90/33
f 38/90/33 42/67/33 16/15/33
f 32/89/33 12/13/33 46/68/33
f 30/97/34 62/73/34 55/98/34
f 30/97/34 55/98/34 53/99/34
f 1/3/34 28/77/34 49/100/34
f 28/77/34 30/97/34 51/101/34
f 51/101/34 30/97/34 53/99/34
f 5/4/34 3/1/34 43/102/34
f 3/1/34 1/3/34 47/103/34
f 5/4/34 43/102/34 39/104/34
f 9/8/34 7/9/34 35/105/34
f 7/9/34 5/4/34 39/104/34
f 13/14/34 11/10/34 45/69/34
f 11/10/34 9/8/34 31/106/34
f 17/16/34 15/17/34 37/107/34
f 15/17/34 13/14/34 41/70/34
f 21/23/34 19/18/34 68/108/34
f 19/18/34 17/16/34 33/109/34
f 21/23/34 67/110/34 23/22/34
f 25/24/34 23/22/34 66/111/34
f 66/111/34 23/22/34 67/110/34
f 65/112/34 64/71/34 25/24/34
f 66/111/34 65/112/34 25/24/34
f 67/110/34 21/23/34 68/108/34
f 11/10/34 31/106/34 45/69/34
f 9/8/34 35/105/34 31/106/34
f 7/9/34 39/104/34 35/105/34
f 28/77/34 51/101/34 49/100/34
f 68/108/34 19/18/34 33/109/34
f 1/3/34 49/100/34 47/103/34
f 47/103/34 43/102/34 3/1/34
f 37/107/34 33/109/34 17/16/34
f 41/70/34 37/107/34 15/17/34
f 64/71/35 58/95/35 26/72/35
f 62/73/35 30/97/35 27/74/35
