# Blender v2.91.0 OBJ File: ''
# www.blender.org
mtllib portal_fx.mtl
o Circle_Circle.002
v 0.000000 -1.000000 0.000000
v 0.195090 -0.980785 -0.000000
v 0.382683 -0.923880 -0.000000
v 0.555570 -0.831470 -0.000000
v 0.707107 -0.707107 -0.000000
v 0.831470 -0.555570 -0.000000
v 0.923880 -0.382683 -0.000000
v 0.980785 -0.195090 -0.000000
v 1.000000 -0.000000 -0.000000
v 0.980785 0.195090 -0.000000
v 0.923880 0.382683 -0.000000
v 0.831470 0.555570 -0.000000
v 0.707107 0.707107 -0.000000
v 0.555570 0.831470 -0.000000
v 0.382683 0.923880 -0.000000
v 0.195090 0.980785 -0.000000
v -0.000000 1.000000 -0.000000
v -0.195091 0.980785 0.000000
v -0.382684 0.923879 0.000000
v -0.555571 0.831469 0.000000
v -0.707107 0.707106 0.000000
v -0.831470 0.555570 0.000000
v -0.923880 0.382683 0.000000
v -0.980785 0.195089 0.000000
v -1.000000 -0.000001 0.000000
v -0.980785 -0.195091 0.000000
v -0.923879 -0.382684 0.000000
v -0.831469 -0.555571 0.000000
v -0.707106 -0.707108 0.000000
v -0.555569 -0.831470 0.000000
v -0.382682 -0.923880 0.000000
v -0.195089 -0.980786 0.000000
v -0.000000 -1.374080 -0.205793
v 0.268070 -1.347677 -0.205793
v 0.525838 -1.269484 -0.205793
v 0.763398 -1.142506 -0.205793
v 0.971621 -0.971621 -0.205793
v 1.142506 -0.763398 -0.205793
v 1.269484 -0.525838 -0.205793
v 1.347677 -0.268070 -0.205794
v 1.374080 0.000000 -0.205794
v 1.347678 0.268070 -0.205794
v 1.269484 0.525838 -0.205794
v 1.142506 0.763398 -0.205793
v 0.971621 0.971621 -0.205793
v 0.763398 1.142506 -0.205793
v 0.525837 1.269485 -0.205793
v 0.268069 1.347678 -0.205793
v -0.000000 1.374080 -0.205793
v -0.268070 1.347678 -0.205793
v -0.525838 1.269484 -0.205793
v -0.763399 1.142505 -0.205793
v -0.971622 0.971621 -0.205793
v -1.142506 0.763397 -0.205793
v -1.269485 0.525837 -0.205793
v -1.347678 0.268069 -0.205793
v -1.374080 -0.000001 -0.205793
v -1.347678 -0.268071 -0.205793
v -1.269484 -0.525839 -0.205793
v -1.142505 -0.763399 -0.205793
v -0.971620 -0.971623 -0.205793
v -0.763397 -1.142507 -0.205793
v -0.525836 -1.269485 -0.205793
v -0.268068 -1.347678 -0.205793
vt 0.626070 -0.002341
vt 0.657231 0.999996
vt 0.626070 0.999996
vt 0.875357 -0.002341
vt 0.844196 0.999996
vt 0.844196 -0.002341
vt 0.096334 -0.002341
vt 0.065172 0.999996
vt 0.065172 -0.002341
vt 0.470265 -0.002341
vt 0.439104 0.999996
vt 0.439104 -0.002341
vt 0.283300 -0.002341
vt 0.252138 0.999996
vt 0.252138 -0.002341
vt 0.688391 -0.002341
vt 0.657231 -0.002341
vt 0.906519 0.999996
vt 0.875357 0.999996
vt 0.127495 -0.002341
vt 0.096334 0.999996
vt 0.501426 -0.002341
vt 0.470265 0.999996
vt 0.719553 0.999996
vt 0.688391 0.999996
vt 0.937680 -0.002341
vt 0.906519 -0.002341
vt 0.314460 -0.002341
vt 0.283300 0.999996
vt 0.158656 -0.002341
vt 0.127495 0.999996
vt 0.532587 -0.002341
vt 0.501426 0.999996
vt 0.750713 -0.002341
vt 0.719553 -0.002341
vt 0.968840 -0.002341
vt 0.937680 0.999996
vt 0.345621 -0.002341
vt 0.314460 0.999996
vt 0.189817 -0.002341
vt 0.158656 0.999996
vt 0.563748 0.999996
vt 0.532587 0.999996
vt 0.781874 -0.002341
vt 0.750713 0.999996
vt 1.000001 0.999996
vt 0.968840 0.999996
vt 0.376782 -0.002341
vt 0.345621 0.999996
vt 0.220978 0.999996
vt 0.189817 0.999996
vt 0.594909 -0.002341
vt 0.563748 -0.002341
vt 0.813036 -0.002341
vt 0.781874 0.999996
vt 0.034013 -0.002341
vt 0.002851 0.999996
vt 0.002851 -0.002341
vt 0.407943 -0.002341
vt 0.376782 0.999996
vt 0.220978 -0.002341
vt 0.594909 0.999996
vt 0.813036 0.999996
vt 0.034013 0.999996
vt 0.407943 0.999996
vt 1.000001 -0.002341
vn -0.3069 -0.3740 -0.8752
vn 0.3069 -0.3740 -0.8752
vn 0.4267 0.2281 -0.8752
vn -0.4630 0.1404 -0.8752
vn -0.0474 0.4815 -0.8752
vn -0.2281 -0.4267 -0.8752
vn 0.3740 -0.3069 -0.8752
vn 0.3740 0.3069 -0.8752
vn -0.4815 0.0474 -0.8752
vn -0.1404 -0.4630 -0.8752
vn 0.4267 -0.2281 -0.8752
vn -0.1404 0.4630 -0.8752
vn 0.3069 0.3740 -0.8752
vn -0.4815 -0.0474 -0.8752
vn -0.0474 -0.4815 -0.8752
vn 0.4630 -0.1404 -0.8752
vn -0.2281 0.4267 -0.8752
vn 0.2281 0.4267 -0.8752
vn -0.4630 -0.1404 -0.8752
vn 0.0474 -0.4815 -0.8752
vn 0.4815 -0.0474 -0.8752
vn -0.3069 0.3740 -0.8752
vn 0.1404 0.4630 -0.8752
vn -0.4267 -0.2281 -0.8752
vn 0.1404 -0.4630 -0.8752
vn 0.4815 0.0474 -0.8752
vn -0.3740 0.3069 -0.8752
vn 0.0474 0.4815 -0.8752
vn -0.3740 -0.3069 -0.8752
vn 0.2281 -0.4267 -0.8752
vn 0.4630 0.1404 -0.8752
vn -0.4267 0.2281 -0.8752
usemtl None
s off
f 13/1/1 46/2/1 45/3/1
f 21/4/2 52/5/2 20/6/2
f 28/7/3 59/8/3 27/9/3
f 8/10/4 39/11/4 7/12/4
f 2/13/5 33/14/5 1/15/5
f 15/16/6 46/2/6 14/17/6
f 21/4/7 54/18/7 53/19/7
f 29/20/8 60/21/8 28/7/8
f 9/22/9 40/23/9 8/10/9
f 15/16/10 48/24/10 47/25/10
f 23/26/11 54/18/11 22/27/11
f 3/28/12 34/29/12 2/13/12
f 30/30/13 61/31/13 29/20/13
f 10/32/14 41/33/14 9/22/14
f 17/34/15 48/24/15 16/35/15
f 24/36/16 55/37/16 23/26/16
f 4/38/17 35/39/17 3/28/17
f 31/40/18 62/41/18 30/30/18
f 10/32/19 43/42/19 42/43/19
f 18/44/20 49/45/20 17/34/20
f 24/36/21 57/46/21 56/47/21
f 5/48/22 36/49/22 4/38/22
f 31/40/23 64/50/23 63/51/23
f 12/52/24 43/42/24 11/53/24
f 19/54/25 50/55/25 18/44/25
f 26/56/26 57/57/26 25/58/26
f 6/59/27 37/60/27 5/48/27
f 32/61/28 33/14/28 64/50/28
f 13/1/29 44/62/29 12/52/29
f 20/6/30 51/63/30 19/54/30
f 26/56/31 59/8/31 58/64/31
f 7/12/32 38/65/32 6/59/32
f 13/1/1 14/17/1 46/2/1
f 21/4/2 53/19/2 52/5/2
f 28/7/3 60/21/3 59/8/3
f 8/10/4 40/23/4 39/11/4
f 2/13/5 34/29/5 33/14/5
f 15/16/6 47/25/6 46/2/6
f 21/4/7 22/27/7 54/18/7
f 29/20/8 61/31/8 60/21/8
f 9/22/9 41/33/9 40/23/9
f 15/16/10 16/35/10 48/24/10
f 23/26/11 55/37/11 54/18/11
f 3/28/12 35/39/12 34/29/12
f 30/30/13 62/41/13 61/31/13
f 10/32/14 42/43/14 41/33/14
f 17/34/15 49/45/15 48/24/15
f 24/36/16 56/47/16 55/37/16
f 4/38/17 36/49/17 35/39/17
f 31/40/18 63/51/18 62/41/18
f 10/32/19 11/53/19 43/42/19
f 18/44/20 50/55/20 49/45/20
f 24/36/21 25/66/21 57/46/21
f 5/48/22 37/60/22 36/49/22
f 31/40/23 32/61/23 64/50/23
f 12/52/24 44/62/24 43/42/24
f 19/54/25 51/63/25 50/55/25
f 26/56/26 58/64/26 57/57/26
f 6/59/27 38/65/27 37/60/27
f 32/61/28 1/15/28 33/14/28
f 13/1/29 45/3/29 44/62/29
f 20/6/30 52/5/30 51/63/30
f 26/56/31 27/9/31 59/8/31
f 7/12/32 39/11/32 38/65/32
