# Blender v2.93.1 OBJ File: ''
# www.blender.org
o Circle.001
v -0.000000 1.314981 -0.218696
v -0.256540 1.289714 -0.218696
v -0.503222 1.214884 -0.218696
v -0.730564 1.093367 -0.218696
v -0.929832 0.929832 -0.218696
v -1.093367 0.730564 -0.218696
v -1.214884 0.503222 -0.218696
v -1.289714 0.256540 -0.218696
v -1.314981 -0.000000 -0.218696
v -1.289714 -0.256540 -0.218696
v -1.214884 -0.503222 -0.218696
v -1.093367 -0.730564 -0.218696
v -0.929832 -0.929832 -0.218696
v -0.730564 -1.093367 -0.218696
v -0.503222 -1.214884 -0.218696
v -0.256540 -1.289714 -0.218696
v 0.000000 -1.314981 -0.218696
v 0.256540 -1.289714 -0.218696
v 0.503222 -1.214884 -0.218696
v 0.730565 -1.093367 -0.218696
v 0.929832 -0.929832 -0.218696
v 1.093367 -0.730565 -0.218696
v 1.214884 -0.503222 -0.218696
v 1.289714 -0.256540 -0.218696
v 1.314981 0.000000 -0.218696
v 1.289714 0.256540 -0.218696
v 1.214884 0.503222 -0.218696
v 1.093367 0.730564 -0.218696
v 0.929832 0.929832 -0.218696
v 0.730565 1.093367 -0.218696
v 0.503222 1.214884 -0.218696
v 0.256540 1.289714 -0.218696
v -0.000000 1.314981 0.218696
v -0.256540 1.289714 0.218696
v -0.503222 1.214884 0.218696
v -0.730564 1.093367 0.218696
v -0.929832 0.929832 0.218696
v -1.093367 0.730564 0.218696
v -1.214884 0.503222 0.218696
v -1.289714 0.256540 0.218696
v -1.314981 -0.000000 0.218696
v -1.289714 -0.256540 0.218696
v -1.214884 -0.503222 0.218696
v -1.093367 -0.730564 0.218696
v -0.929832 -0.929832 0.218696
v -0.730564 -1.093367 0.218696
v -0.503222 -1.214884 0.218696
v -0.256540 -1.289714 0.218696
v 0.000000 -1.314981 0.218696
v 0.256540 -1.289714 0.218696
v 0.503222 -1.214884 0.218696
v 0.730565 -1.093367 0.218696
v 0.929832 -0.929832 0.218696
v 1.093367 -0.730565 0.218696
v 1.214884 -0.503222 0.218696
v 1.289714 -0.256540 0.218696
v 1.314981 0.000000 0.218696
v 1.289714 0.256540 0.218696
v 1.214884 0.503222 0.218696
v 1.093367 0.730564 0.218696
v 0.929832 0.929832 0.218696
v 0.730565 1.093367 0.218696
v 0.503222 1.214884 0.218696
v 0.256540 1.289714 0.218696
v -0.000000 1.459629 -0.218696
v -0.284757 1.431581 -0.218696
v -0.558574 1.348518 -0.218696
v -0.810925 1.213634 -0.218696
v -1.032110 1.032110 -0.218696
v -1.213634 0.810925 -0.218696
v -1.348518 0.558574 -0.218696
v -1.431581 0.284757 -0.218696
v -1.459625 -0.000000 -0.218696
v -1.431581 -0.284757 -0.218696
v -1.348518 -0.558574 -0.218696
v -1.213634 -0.810925 -0.218696
v -1.032110 -1.032110 -0.218696
v -0.810925 -1.213634 -0.218696
v -0.558574 -1.348518 -0.218696
v -0.284757 -1.431581 -0.218696
v 0.000000 -1.459629 -0.218696
v 0.284757 -1.431581 -0.218696
v 0.558574 -1.348518 -0.218696
v 0.810925 -1.213634 -0.218696
v 1.032110 -1.032110 -0.218696
v 1.213634 -0.810925 -0.218696
v 1.348518 -0.558574 -0.218696
v 1.431581 -0.284757 -0.218696
v 1.459625 0.000000 -0.218696
v 1.431581 0.284757 -0.218696
v 1.348518 0.558574 -0.218696
v 1.213634 0.810925 -0.218696
v 1.032110 1.032110 -0.218696
v 0.810925 1.213634 -0.218696
v 0.558574 1.348518 -0.218696
v 0.284757 1.431581 -0.218696
v -0.000000 1.459629 0.218696
v -0.284757 1.431581 0.218696
v -0.558574 1.348518 0.218696
v -0.810925 1.213634 0.218696
v -1.032110 1.032110 0.218696
v -1.213634 0.810925 0.218696
v -1.348518 0.558574 0.218696
v -1.431581 0.284757 0.218696
v -1.459625 -0.000000 0.218696
v -1.431581 -0.284757 0.218696
v -1.348518 -0.558574 0.218696
v -1.213634 -0.810925 0.218696
v -1.032110 -1.032110 0.218696
v -0.810925 -1.213634 0.218696
v -0.558574 -1.348518 0.218696
v -0.284757 -1.431581 0.218696
v 0.000000 -1.459629 0.218696
v 0.284757 -1.431581 0.218696
v 0.558574 -1.348518 0.218696
v 0.810925 -1.213634 0.218696
v 1.032110 -1.032110 0.218696
v 1.213634 -0.810925 0.218696
v 1.348518 -0.558574 0.218696
v 1.431581 -0.284757 0.218696
v 1.459625 0.000000 0.218696
v 1.431581 0.284757 0.218696
v 1.348518 0.558574 0.218696
v 1.213634 0.810925 0.218696
v 1.032110 1.032110 0.218696
v 0.810925 1.213634 0.218696
v 0.558574 1.348518 0.218696
v 0.284757 1.431581 0.218696
vn -0.6344 0.7730 0.0000
vn 0.9569 -0.2903 0.0000
vn -0.7730 0.6344 0.0000
vn 0.9952 -0.0980 0.0000
vn -0.8819 0.4714 0.0000
vn 0.9952 0.0980 -0.0000
vn -0.9569 0.2903 0.0000
vn 0.9569 0.2903 0.0000
vn -0.9952 0.0980 -0.0000
vn 0.8819 0.4714 0.0000
vn -0.9952 -0.0980 0.0000
vn 0.7730 0.6344 0.0000
vn -0.9569 -0.2903 0.0000
vn 0.6344 0.7730 0.0000
vn -0.8819 -0.4714 0.0000
vn 0.4714 0.8819 0.0000
vn 0.0980 -0.9952 0.0000
vn -0.7730 -0.6344 0.0000
vn 0.2903 0.9569 0.0000
vn 0.2903 -0.9569 0.0000
vn -0.6344 -0.7730 0.0000
vn 0.0980 0.9952 0.0000
vn 0.4714 -0.8819 0.0000
vn -0.4714 -0.8819 0.0000
vn -0.0980 0.9952 0.0000
vn 0.6344 -0.7730 0.0000
vn -0.2903 -0.9569 0.0000
vn -0.2903 0.9569 0.0000
vn 0.7730 -0.6344 0.0000
vn -0.0980 -0.9952 0.0000
vn -0.4714 0.8819 0.0000
vn 0.8819 -0.4714 0.0000
vn -0.0000 0.0000 -1.0000
vn 0.0000 0.0000 1.0000
s off
f 20//1 53//1 21//1
f 7//2 40//2 8//2
f 21//3 54//3 22//3
f 8//4 41//4 9//4
f 22//5 55//5 23//5
f 9//6 42//6 10//6
f 23//7 56//7 24//7
f 10//8 43//8 11//8
f 25//9 56//9 57//9
f 11//10 44//10 12//10
f 25//11 58//11 26//11
f 12//12 45//12 13//12
f 26//13 59//13 27//13
f 13//14 46//14 14//14
f 27//15 60//15 28//15
f 14//16 47//16 15//16
f 1//17 34//17 2//17
f 28//18 61//18 29//18
f 15//19 48//19 16//19
f 2//20 35//20 3//20
f 29//21 62//21 30//21
f 16//22 49//22 17//22
f 3//23 36//23 4//23
f 30//24 63//24 31//24
f 17//25 50//25 18//25
f 4//26 37//26 5//26
f 31//27 64//27 32//27
f 18//28 51//28 19//28
f 5//29 38//29 6//29
f 32//30 33//30 1//30
f 19//31 52//31 20//31
f 6//32 39//32 7//32
f 117//26 84//26 85//26
f 104//7 71//7 72//7
f 118//29 85//29 86//29
f 73//9 104//9 72//9
f 119//32 86//32 87//32
f 106//11 73//11 74//11
f 120//2 87//2 88//2
f 107//13 74//13 75//13
f 121//4 88//4 89//4
f 108//15 75//15 76//15
f 122//6 89//6 90//6
f 109//18 76//18 77//18
f 123//8 90//8 91//8
f 110//21 77//21 78//21
f 124//10 91//10 92//10
f 111//24 78//24 79//24
f 98//25 65//25 66//25
f 125//12 92//12 93//12
f 112//27 79//27 80//27
f 99//28 66//28 67//28
f 126//14 93//14 94//14
f 113//30 80//30 81//30
f 100//31 67//31 68//31
f 127//16 94//16 95//16
f 114//17 81//17 82//17
f 101//1 68//1 69//1
f 128//19 95//19 96//19
f 115//20 82//20 83//20
f 102//3 69//3 70//3
f 97//22 96//22 65//22
f 116//23 83//23 84//23
f 103//5 70//5 71//5
f 1//33 66//33 65//33
f 2//33 67//33 66//33
f 4//33 67//33 3//33
f 4//33 69//33 68//33
f 6//33 69//33 5//33
f 6//33 71//33 70//33
f 8//33 71//33 7//33
f 9//33 72//33 8//33
f 9//33 74//33 73//33
f 10//33 75//33 74//33
f 12//33 75//33 11//33
f 12//33 77//33 76//33
f 14//33 77//33 13//33
f 14//33 79//33 78//33
f 16//33 79//33 15//33
f 17//33 80//33 16//33
f 17//33 82//33 81//33
f 18//33 83//33 82//33
f 20//33 83//33 19//33
f 21//33 84//33 20//33
f 22//33 85//33 21//33
f 22//33 87//33 86//33
f 24//33 87//33 23//33
f 25//33 88//33 24//33
f 25//33 90//33 89//33
f 26//33 91//33 90//33
f 28//33 91//33 27//33
f 29//33 92//33 28//33
f 30//33 93//33 29//33
f 30//33 95//33 94//33
f 32//33 95//33 31//33
f 1//33 96//33 32//33
f 33//34 98//34 34//34
f 34//34 99//34 35//34
f 36//34 99//34 100//34
f 36//34 101//34 37//34
f 38//34 101//34 102//34
f 38//34 103//34 39//34
f 40//34 103//34 104//34
f 41//34 104//34 105//34
f 41//34 106//34 42//34
f 42//34 107//34 43//34
f 44//34 107//34 108//34
f 44//34 109//34 45//34
f 46//34 109//34 110//34
f 46//34 111//34 47//34
f 48//34 111//34 112//34
f 49//34 112//34 113//34
f 49//34 114//34 50//34
f 50//34 115//34 51//34
f 52//34 115//34 116//34
f 53//34 116//34 117//34
f 54//34 117//34 118//34
f 54//34 119//34 55//34
f 56//34 119//34 120//34
f 57//34 120//34 121//34
f 57//34 122//34 58//34
f 58//34 123//34 59//34
f 60//34 123//34 124//34
f 61//34 124//34 125//34
f 62//34 125//34 126//34
f 62//34 127//34 63//34
f 64//34 127//34 128//34
f 33//34 128//34 97//34
f 20//1 52//1 53//1
f 7//2 39//2 40//2
f 21//3 53//3 54//3
f 8//4 40//4 41//4
f 22//5 54//5 55//5
f 9//6 41//6 42//6
f 23//7 55//7 56//7
f 10//8 42//8 43//8
f 25//9 24//9 56//9
f 11//10 43//10 44//10
f 25//11 57//11 58//11
f 12//12 44//12 45//12
f 26//13 58//13 59//13
f 13//14 45//14 46//14
f 27//15 59//15 60//15
f 14//16 46//16 47//16
f 1//17 33//17 34//17
f 28//18 60//18 61//18
f 15//19 47//19 48//19
f 2//20 34//20 35//20
f 29//21 61//21 62//21
f 16//22 48//22 49//22
f 3//23 35//23 36//23
f 30//24 62//24 63//24
f 17//25 49//25 50//25
f 4//26 36//26 37//26
f 31//27 63//27 64//27
f 18//28 50//28 51//28
f 5//29 37//29 38//29
f 32//30 64//30 33//30
f 19//31 51//31 52//31
f 6//32 38//32 39//32
f 117//26 116//26 84//26
f 104//7 103//7 71//7
f 118//29 117//29 85//29
f 73//9 105//9 104//9
f 119//32 118//32 86//32
f 106//11 105//11 73//11
f 120//2 119//2 87//2
f 107//13 106//13 74//13
f 121//4 120//4 88//4
f 108//15 107//15 75//15
f 122//6 121//6 89//6
f 109//18 108//18 76//18
f 123//8 122//8 90//8
f 110//21 109//21 77//21
f 124//10 123//10 91//10
f 111//24 110//24 78//24
f 98//25 97//25 65//25
f 125//12 124//12 92//12
f 112//27 111//27 79//27
f 99//28 98//28 66//28
f 126//14 125//14 93//14
f 113//30 112//30 80//30
f 100//31 99//31 67//31
f 127//16 126//16 94//16
f 114//17 113//17 81//17
f 101//1 100//1 68//1
f 128//19 127//19 95//19
f 115//20 114//20 82//20
f 102//3 101//3 69//3
f 97//22 128//22 96//22
f 116//23 115//23 83//23
f 103//5 102//5 70//5
f 1//33 2//33 66//33
f 2//33 3//33 67//33
f 4//33 68//33 67//33
f 4//33 5//33 69//33
f 6//33 70//33 69//33
f 6//33 7//33 71//33
f 8//33 72//33 71//33
f 9//33 73//33 72//33
f 9//33 10//33 74//33
f 10//33 11//33 75//33
f 12//33 76//33 75//33
f 12//33 13//33 77//33
f 14//33 78//33 77//33
f 14//33 15//33 79//33
f 16//33 80//33 79//33
f 17//33 81//33 80//33
f 17//33 18//33 82//33
f 18//33 19//33 83//33
f 20//33 84//33 83//33
f 21//33 85//33 84//33
f 22//33 86//33 85//33
f 22//33 23//33 87//33
f 24//33 88//33 87//33
f 25//33 89//33 88//33
f 25//33 26//33 90//33
f 26//33 27//33 91//33
f 28//33 92//33 91//33
f 29//33 93//33 92//33
f 30//33 94//33 93//33
f 30//33 31//33 95//33
f 32//33 96//33 95//33
f 1//33 65//33 96//33
f 33//34 97//34 98//34
f 34//34 98//34 99//34
f 36//34 35//34 99//34
f 36//34 100//34 101//34
f 38//34 37//34 101//34
f 38//34 102//34 103//34
f 40//34 39//34 103//34
f 41//34 40//34 104//34
f 41//34 105//34 106//34
f 42//34 106//34 107//34
f 44//34 43//34 107//34
f 44//34 108//34 109//34
f 46//34 45//34 109//34
f 46//34 110//34 111//34
f 48//34 47//34 111//34
f 49//34 48//34 112//34
f 49//34 113//34 114//34
f 50//34 114//34 115//34
f 52//34 51//34 115//34
f 53//34 52//34 116//34
f 54//34 53//34 117//34
f 54//34 118//34 119//34
f 56//34 55//34 119//34
f 57//34 56//34 120//34
f 57//34 121//34 122//34
f 58//34 122//34 123//34
f 60//34 59//34 123//34
f 61//34 60//34 124//34
f 62//34 61//34 125//34
f 62//34 126//34 127//34
f 64//34 63//34 127//34
f 33//34 64//34 128//34
