# Blender v2.91.0 OBJ File: 'lasercube.blend'
# www.blender.org
mtllib laserlenses.mtl
o Circle.001_Circle.002
v 0.693885 -0.000000 0.000000
v 0.693885 -0.000000 -0.414533
v 0.693885 0.158635 -0.382978
v 0.693885 0.293119 -0.293119
v 0.693885 0.382978 -0.158635
v 0.693885 0.414533 0.000000
v 0.693885 0.382978 0.158635
v 0.693885 0.293119 0.293119
v 0.693885 0.158635 0.382978
v 0.693885 0.000000 0.414533
v 0.693885 -0.158635 0.382978
v 0.693885 -0.293119 0.293119
v 0.693885 -0.382978 0.158635
v 0.693885 -0.414533 -0.000000
v 0.693885 -0.382978 -0.158635
v 0.693885 -0.293119 -0.293119
v 0.693885 -0.158635 -0.382979
v 0.683242 0.158635 -0.382978
v 0.683242 -0.000000 -0.414533
v 0.683242 -0.000000 0.000000
v 0.683242 0.293119 -0.293119
v 0.683242 0.382978 -0.158635
v 0.683242 0.414533 0.000000
v 0.683242 0.382978 0.158635
v 0.683242 0.293119 0.293119
v 0.683242 0.158635 0.382978
v 0.683242 0.000000 0.414533
v 0.683242 -0.158635 0.382978
v 0.683242 -0.293119 0.293119
v 0.683242 -0.382978 0.158635
v 0.683242 -0.414533 -0.000000
v 0.683242 -0.382978 -0.158635
v 0.683242 -0.293119 -0.293119
v 0.683242 -0.158635 -0.382979
v 0.008309 0.008309 0.012413
v 0.368826 0.368826 -0.497435
v 0.146273 0.536494 -0.458625
v -0.097284 0.623750 -0.348104
v -0.324765 0.617311 -0.182697
v -0.501538 0.518157 0.012413
v -0.600692 0.341383 0.207523
v -0.607131 0.113902 0.372930
v -0.519875 -0.129654 0.483451
v -0.352207 -0.352207 0.522261
v -0.129655 -0.519875 0.483451
v 0.113902 -0.607131 0.372930
v 0.341383 -0.600692 0.207523
v 0.518157 -0.501538 0.012413
v 0.617311 -0.324765 -0.182697
v 0.623750 -0.097283 -0.348104
v 0.536494 0.146273 -0.458625
v 0.140117 0.530338 -0.467331
v 0.362670 0.362670 -0.506141
v 0.002153 0.002153 0.003707
v -0.103440 0.617594 -0.356810
v -0.330921 0.611155 -0.191403
v -0.507695 0.512001 0.003707
v -0.606848 0.335227 0.198817
v -0.613287 0.107746 0.364224
v -0.526031 -0.135811 0.474745
v -0.358364 -0.358364 0.513555
v -0.135811 -0.526031 0.474745
v 0.107746 -0.613287 0.364224
v 0.335227 -0.606849 0.198817
v 0.512001 -0.507695 0.003707
v 0.611155 -0.330921 -0.191404
v 0.617594 -0.103440 -0.356810
v 0.530337 0.140117 -0.467331
vt 0.052137 0.042530
vt 0.052137 0.042530
vt 0.052137 0.042530
vt 0.052137 0.042530
vt 0.052137 0.042530
vt 0.052137 0.042530
vt 0.052137 0.042530
vt 0.052137 0.042530
vt 0.052137 0.042530
vt 0.052137 0.042530
vt 0.052137 0.042530
vt 0.052137 0.042530
vt 0.052137 0.042530
vt 0.052137 0.042530
vt 0.052137 0.042530
vt 0.052137 0.042530
vt 0.052137 0.042530
vt 0.052137 0.042530
vt 0.052137 0.042530
vt 0.052137 0.042530
vt 0.052137 0.042530
vt 0.052137 0.042530
vt 0.052137 0.042530
vt 0.052137 0.042530
vt 0.052137 0.042530
vt 0.052137 0.042530
vt 0.052137 0.042530
vt 0.052137 0.042530
vt 0.052137 0.042530
vt 0.052137 0.042530
vt 0.052137 0.042530
vt 0.052137 0.042530
vt 0.052137 0.042530
vt 0.052137 0.042530
vt 0.878961 0.122506
vt 0.878961 0.122506
vt 0.878961 0.122506
vt 0.878961 0.122506
vt 0.878961 0.122506
vt 0.878961 0.122506
vt 0.878961 0.122506
vt 0.878961 0.122506
vt 0.878961 0.122506
vt 0.878961 0.122506
vt 0.878961 0.122506
vt 0.878961 0.122506
vt 0.878961 0.122506
vt 0.878961 0.122506
vt 0.878961 0.122506
vt 0.878961 0.122506
vt 0.878961 0.122506
vt 0.878961 0.122506
vt 0.878961 0.122506
vt 0.878961 0.122506
vt 0.878961 0.122506
vt 0.878961 0.122506
vt 0.878961 0.122506
vt 0.878961 0.122506
vt 0.878961 0.122506
vt 0.878961 0.122506
vt 0.878961 0.122506
vt 0.878961 0.122506
vt 0.878961 0.122506
vt 0.878961 0.122506
vt 0.878961 0.122506
vt 0.878961 0.122506
vt 0.878961 0.122506
vt 0.878961 0.122506
vn 1.0000 0.0000 0.0000
vn -1.0000 -0.0000 0.0000
vn 0.0000 0.1951 -0.9808
vn 0.0000 0.1951 0.9808
vn 0.0000 -0.9808 0.1951
vn 0.0000 -0.1951 -0.9808
vn 0.0000 0.9808 0.1951
vn 0.0000 -0.1951 0.9808
vn 0.0000 -0.9808 -0.1951
vn -0.0000 0.5556 -0.8315
vn 0.0000 0.8315 0.5556
vn 0.0000 -0.5556 0.8315
vn 0.0000 -0.8315 -0.5556
vn 0.0000 0.8315 -0.5556
vn 0.0000 0.5556 0.8315
vn 0.0000 -0.8315 0.5556
vn 0.0000 -0.5556 -0.8315
vn 0.0000 0.9808 -0.1951
vn 0.5000 0.5000 0.7071
vn -0.5000 -0.5000 -0.7071
vn 0.3524 0.6283 -0.6935
vn -0.6283 -0.3524 0.6935
vn 0.5960 -0.7911 0.1379
vn 0.6283 0.3524 -0.6935
vn -0.7911 0.5960 0.1379
vn -0.3524 -0.6283 0.6935
vn 0.7911 -0.5960 -0.1379
vn 0.0229 0.8086 -0.5879
vn -0.8657 0.3101 0.3928
vn -0.0229 -0.8086 0.5879
vn 0.8657 -0.3101 -0.3928
vn -0.3102 0.8657 -0.3928
vn -0.8086 -0.0229 0.5879
vn 0.3102 -0.8657 0.3928
vn 0.8086 0.0229 -0.5879
vn -0.5960 0.7911 -0.1380
vn 0.7911 -0.5960 -0.1380
vn -0.8657 0.3102 0.3928
vn 0.8657 -0.3102 -0.3928
usemtl Material.002
s off
f 1/1/1 2/2/1 3/3/1
f 1/1/1 3/3/1 4/4/1
f 1/1/1 4/4/1 5/5/1
f 1/1/1 5/5/1 6/6/1
f 1/1/1 6/6/1 7/7/1
f 1/1/1 7/7/1 8/8/1
f 1/1/1 8/8/1 9/9/1
f 1/1/1 9/9/1 10/10/1
f 1/1/1 10/10/1 11/11/1
f 1/1/1 11/11/1 12/12/1
f 1/1/1 12/12/1 13/13/1
f 1/1/1 13/13/1 14/14/1
f 1/1/1 14/14/1 15/15/1
f 1/1/1 15/15/1 16/16/1
f 1/1/1 16/16/1 17/17/1
f 1/1/1 17/17/1 2/2/1
f 20/18/2 18/19/2 19/20/2
f 20/18/2 21/21/2 18/19/2
f 20/18/2 22/22/2 21/21/2
f 20/18/2 23/23/2 22/22/2
f 20/18/2 24/24/2 23/23/2
f 20/18/2 25/25/2 24/24/2
f 20/18/2 26/26/2 25/25/2
f 20/18/2 27/27/2 26/26/2
f 20/18/2 28/28/2 27/27/2
f 20/18/2 29/29/2 28/28/2
f 20/18/2 30/30/2 29/29/2
f 20/18/2 31/31/2 30/30/2
f 20/18/2 32/32/2 31/31/2
f 20/18/2 33/33/2 32/32/2
f 20/18/2 34/34/2 33/33/2
f 20/18/2 19/20/2 34/34/2
f 19/20/3 3/3/3 2/2/3
f 26/26/4 10/10/4 9/9/4
f 30/30/5 14/14/5 13/13/5
f 34/34/6 2/2/6 17/17/6
f 23/23/7 7/7/7 6/6/7
f 27/27/8 11/11/8 10/10/8
f 31/31/9 15/15/9 14/14/9
f 18/19/10 4/4/10 3/3/10
f 24/24/11 8/8/11 7/7/11
f 28/28/12 12/12/12 11/11/12
f 32/32/13 16/16/13 15/15/13
f 21/21/14 5/5/14 4/4/14
f 25/25/15 9/9/15 8/8/15
f 29/29/16 13/13/16 12/12/16
f 33/33/17 17/17/17 16/16/17
f 22/22/18 6/6/18 5/5/18
f 35/35/19 36/36/19 37/37/19
f 35/35/19 37/37/19 38/38/19
f 35/35/19 38/38/19 39/39/19
f 35/35/19 39/39/19 40/40/19
f 35/35/19 40/40/19 41/41/19
f 35/35/19 41/41/19 42/42/19
f 35/35/19 42/42/19 43/43/19
f 35/35/19 43/43/19 44/44/19
f 35/35/19 44/44/19 45/45/19
f 35/35/19 45/45/19 46/46/19
f 35/35/19 46/46/19 47/47/19
f 35/35/19 47/47/19 48/48/19
f 35/35/19 48/48/19 49/49/19
f 35/35/19 49/49/19 50/50/19
f 35/35/19 50/50/19 51/51/19
f 35/35/19 51/51/19 36/36/19
f 54/52/20 52/53/20 53/54/20
f 54/52/20 55/55/20 52/53/20
f 54/52/20 56/56/20 55/55/20
f 54/52/20 57/57/20 56/56/20
f 54/52/20 58/58/20 57/57/20
f 54/52/20 59/59/20 58/58/20
f 54/52/20 60/60/20 59/59/20
f 54/52/20 61/61/20 60/60/20
f 54/52/20 62/62/20 61/61/20
f 54/52/20 63/63/20 62/62/20
f 54/52/20 64/64/20 63/63/20
f 54/52/20 65/65/20 64/64/20
f 54/52/20 66/66/20 65/65/20
f 54/52/20 67/67/20 66/66/20
f 54/52/20 68/68/20 67/67/20
f 54/52/20 53/54/20 68/68/20
f 53/54/21 37/37/21 36/36/21
f 43/43/22 61/61/22 44/44/22
f 64/64/23 48/48/23 47/47/23
f 51/51/24 53/54/24 36/36/24
f 57/57/25 41/41/25 40/40/25
f 61/61/26 45/45/26 44/44/26
f 48/48/27 66/66/27 49/49/27
f 52/53/28 38/38/28 37/37/28
f 58/58/29 42/42/29 41/41/29
f 45/45/30 63/63/30 46/46/30
f 66/66/31 50/50/31 49/49/31
f 38/38/32 56/56/32 39/39/32
f 42/42/33 60/60/33 43/43/33
f 46/46/34 64/64/34 47/47/34
f 67/67/35 51/51/35 50/50/35
f 56/56/36 40/40/36 39/39/36
f 19/20/3 18/19/3 3/3/3
f 26/26/4 27/27/4 10/10/4
f 30/30/5 31/31/5 14/14/5
f 34/34/6 19/20/6 2/2/6
f 23/23/7 24/24/7 7/7/7
f 27/27/8 28/28/8 11/11/8
f 31/31/9 32/32/9 15/15/9
f 18/19/10 21/21/10 4/4/10
f 24/24/11 25/25/11 8/8/11
f 28/28/12 29/29/12 12/12/12
f 32/32/13 33/33/13 16/16/13
f 21/21/14 22/22/14 5/5/14
f 25/25/15 26/26/15 9/9/15
f 29/29/16 30/30/16 13/13/16
f 33/33/17 34/34/17 17/17/17
f 22/22/18 23/23/18 6/6/18
f 53/54/21 52/53/21 37/37/21
f 43/43/22 60/60/22 61/61/22
f 64/64/23 65/65/23 48/48/23
f 51/51/24 68/68/24 53/54/24
f 57/57/25 58/58/25 41/41/25
f 61/61/26 62/62/26 45/45/26
f 48/48/37 65/65/37 66/66/37
f 52/53/28 55/55/28 38/38/28
f 58/58/38 59/59/38 42/42/38
f 45/45/30 62/62/30 63/63/30
f 66/66/39 67/67/39 50/50/39
f 38/38/32 55/55/32 56/56/32
f 42/42/33 59/59/33 60/60/33
f 46/46/34 63/63/34 64/64/34
f 67/67/35 68/68/35 51/51/35
f 56/56/36 57/57/36 40/40/36
