# Blender v2.91.0 OBJ File: 'laser_emitter_better.blend'
# www.blender.org
mtllib ball.mtl
o Transparent_lens_thing
v 0.057867 0.005901 0.891321
v 0.057587 -0.008031 0.891340
v 0.046233 -0.020986 0.891988
v 0.053136 -0.023338 0.891321
v 0.045223 -0.036325 0.891328
v 0.038913 -0.032494 0.891998
v 0.033666 -0.047065 0.891322
v 0.026471 -0.043272 0.891976
v 0.021848 -0.053594 0.891325
v 0.009413 -0.049581 0.891981
v 0.004115 -0.057770 0.891323
v -0.005635 -0.050032 0.891970
v -0.015073 -0.055829 0.891323
v -0.018688 -0.046532 0.891973
v -0.032483 -0.047505 0.891324
v -0.032530 -0.038294 0.891983
v -0.043905 -0.037348 0.891346
v -0.040964 -0.029010 0.891994
v -0.050690 -0.027216 0.891341
v -0.047566 -0.016093 0.891974
v -0.056312 -0.011203 0.891326
v -0.050072 -0.000243 0.891973
v -0.057342 0.006164 0.891330
v -0.047807 0.015441 0.891971
v -0.050038 0.028545 0.891331
v -0.039746 0.030568 0.891969
v -0.041864 0.039433 0.891334
v -0.025996 0.043348 0.891980
v -0.015213 0.055784 0.891323
v -0.006879 0.049817 0.891971
v 0.003702 0.057821 0.891325
v 0.006045 0.050067 0.891975
v 0.021942 0.053621 0.891344
v 0.021262 0.045812 0.891981
v 0.032691 0.047810 0.891331
v 0.037778 0.034029 0.891970
v 0.044884 0.036713 0.891325
v 0.053172 0.023278 0.891321
v 0.047477 0.017653 0.891976
v 0.050809 -0.001135 0.891985
v 0.030252 0.026461 0.898866
v 0.023166 0.037905 0.896204
v 0.011565 0.039524 0.898179
v -0.009968 0.043376 0.895958
v -0.011713 0.020378 0.905428
v -0.010424 0.007630 0.907921
v -0.017547 -0.009543 0.906442
v -0.018241 -0.019522 0.904434
v -0.010648 -0.029606 0.902795
v 0.033523 -0.019376 0.899563
v 0.025369 -0.028198 0.899953
v 0.019521 -0.017652 0.904717
v 0.005143 -0.024177 0.905187
v -0.006659 -0.019975 0.906103
v 0.012352 -0.028204 0.903008
v 0.016867 -0.038412 0.897730
v 0.005421 -0.039643 0.898813
v -0.008104 -0.041034 0.897711
v -0.021211 -0.037944 0.896663
v -0.044360 0.003354 0.895855
v -0.040600 -0.007826 0.897851
v -0.026433 0.001823 0.904567
v -0.035497 0.006187 0.900557
v -0.041183 0.013938 0.896482
v -0.029789 0.015527 0.901663
v -0.036475 0.022133 0.897032
v -0.021428 0.020247 0.903506
v -0.031085 0.030213 0.896635
v -0.018780 0.035885 0.898404
v 0.041204 -0.009048 0.897717
v 0.012318 -0.008717 0.907594
v 0.001182 -0.013115 0.907846
v 0.026870 -0.007267 0.904232
v -0.008666 -0.003962 0.908267
v 0.001109 -0.000486 0.908861
v 0.032931 0.003414 0.902226
v 0.044204 0.005715 0.896142
v 0.014878 0.003482 0.907560
v 0.029358 0.011359 0.902865
v 0.018326 0.015937 0.905382
v 0.004617 0.013781 0.907624
v 0.040791 0.018654 0.896052
v -0.001182 0.021285 0.906135
v 0.010404 0.024952 0.904413
v 0.022228 0.028010 0.900893
v -0.008848 0.032663 0.901743
v 0.002559 0.040750 0.898283
v 0.001810 0.031835 0.902509
v -0.027323 -0.028204 0.898934
v -0.033483 -0.018136 0.899654
v -0.028698 -0.012592 0.902621
v 0.051663 0.008443 0.896066
v 0.045619 0.025461 0.895989
v 0.032783 0.022368 0.903709
v 0.019790 0.025209 0.907019
v 0.014517 0.018306 0.909999
v 0.006501 0.016057 0.911345
v -0.017007 0.021802 0.908534
v -0.027511 0.025402 0.904520
v -0.026913 0.014748 0.907407
v -0.035212 0.017849 0.903459
v -0.042338 0.025910 0.897533
v -0.032971 0.036393 0.897884
v -0.028536 0.050267 0.891350
v -0.011600 0.049444 0.896848
v 0.014977 0.046092 0.898613
v 0.011977 0.033474 0.905552
v 0.037273 0.034400 0.897089
v 0.026388 0.037651 0.900215
v -0.048977 0.013249 0.896710
v -0.011997 0.012031 0.911275
v 0.040648 0.012449 0.902264
v -0.048088 -0.016654 0.896598
v -0.047351 -0.003270 0.898996
v -0.021295 -0.029387 0.905136
v -0.008804 -0.028591 0.907790
v -0.003146 -0.040258 0.903156
v 0.007938 -0.029108 0.907810
v 0.018341 -0.036393 0.903093
v 0.029194 -0.036922 0.899481
v 0.037274 -0.036547 0.895943
v 0.024017 -0.046079 0.896037
v 0.012000 -0.049355 0.896884
v -0.015030 -0.039721 0.901917
v -0.027983 -0.039838 0.898281
v -0.019780 -0.048595 0.895599
v 0.043044 -0.024344 0.898061
v 0.027334 0.010554 0.908104
v -0.001460 0.007485 0.912730
v -0.040124 0.007119 0.902948
v 0.013754 0.003365 0.911918
v 0.038501 0.000128 0.904398
v -0.015476 0.004252 0.911539
v -0.024795 0.000925 0.909437
v 0.021923 -0.004583 0.910233
v 0.004400 -0.002306 0.912862
v 0.049705 -0.010727 0.897084
v -0.009286 -0.009209 0.912115
v -0.038259 -0.010438 0.903464
v 0.029725 -0.010696 0.907329
v 0.007511 -0.012146 0.911873
v -0.024623 -0.011366 0.908672
v 0.039821 -0.013739 0.902332
v 0.016949 -0.016675 0.909771
v -0.001878 -0.018342 0.911066
v 0.033023 -0.023249 0.903313
v -0.022903 -0.018893 0.907772
v -0.035233 -0.025878 0.901317
v 0.020615 -0.025237 0.906810
v 0.003634 -0.044714 0.900802
v -0.007127 -0.049347 0.897470
v 0.003168 0.046658 0.899659
v -0.024506 0.038383 0.900234
v -0.015375 0.036560 0.903489
v -0.003185 0.036565 0.905019
v -0.002569 0.024953 0.909467
vn -0.0853 0.0013 -0.9964
vn -0.0851 -0.0121 -0.9963
vn -0.0833 0.0142 -0.9964
vn -0.2792 0.1250 -0.9520
vn -0.0837 0.0367 -0.9958
vn -0.0713 0.0575 -0.9958
vn -0.2296 0.1978 -0.9530
vn -0.0538 0.0726 -0.9959
vn -0.1590 0.2583 -0.9529
vn -0.0312 0.0808 -0.9962
vn -0.0569 0.3060 -0.9503
vn -0.0049 0.0877 -0.9961
vn 0.0330 0.3119 -0.9495
vn 0.0235 0.0840 -0.9962
vn 0.0354 0.0808 -0.9961
vn 0.0475 0.0740 -0.9961
vn 0.2015 0.2358 -0.9507
vn 0.0658 0.0578 -0.9962
vn 0.2492 0.1730 -0.9529
vn 0.0780 0.0390 -0.9962
vn 0.2915 0.0992 -0.9514
vn 0.0860 0.0160 -0.9962
vn 0.0864 0.0022 -0.9963
vn 0.0858 -0.0101 -0.9963
vn 0.0887 -0.0290 -0.9956
vn 0.0749 -0.0405 -0.9964
vn 0.0663 -0.0510 -0.9965
vn 0.0607 -0.0587 -0.9964
vn 0.0443 -0.0715 -0.9965
vn 0.0425 -0.0751 -0.9963
vn 0.0219 -0.0800 -0.9966
vn 0.0458 -0.3136 -0.9485
vn -0.0045 -0.0875 -0.9962
vn -0.0376 -0.3113 -0.9496
vn -0.0301 -0.0802 -0.9963
vn -0.0352 -0.0750 -0.9966
vn -0.0482 -0.0676 -0.9966
vn -0.0645 -0.0587 -0.9962
vn -0.0698 -0.0546 -0.9961
vn -0.0791 -0.0364 -0.9962
vn -0.0817 -0.0299 -0.9962
vn -0.5640 0.0169 -0.8256
vn -0.5251 -0.0745 -0.8477
vn -0.5469 -0.1982 -0.8134
vn -0.2384 -0.5237 -0.8179
vn -0.1418 -0.4679 -0.8724
vn 0.2306 -0.4210 -0.8772
vn 0.1298 -0.5253 -0.8409
vn 0.1114 -0.3858 -0.9158
vn 0.2599 -0.2406 -0.9352
vn 0.1437 -0.2443 -0.9590
vn 0.1354 -0.0923 -0.9865
vn 0.1141 0.0558 -0.9919
vn 0.2075 0.1057 -0.9725
vn 0.1262 0.3570 -0.9255
vn 0.0963 0.4890 -0.8670
vn 0.2580 0.4526 -0.8536
vn 0.2141 0.5314 -0.8196
vn -0.4921 0.1062 -0.8640
vn -0.3980 0.2321 -0.8876
vn -0.2274 0.2118 -0.9505
vn -0.3038 0.3424 -0.8891
vn -0.1476 0.3382 -0.9294
vn -0.0531 0.2923 -0.9548
vn 0.0831 0.2295 -0.9698
vn 0.2260 0.2403 -0.9440
vn -0.2017 0.4622 -0.8635
vn -0.0508 0.4695 -0.8815
vn 0.3284 0.3356 -0.8829
vn 0.4850 0.0900 -0.8698
vn 0.5740 0.0104 -0.8188
vn 0.5336 -0.0425 -0.8447
vn 0.4268 -0.0674 -0.9018
vn 0.3117 -0.0225 -0.9499
vn 0.5416 -0.1773 -0.8217
vn 0.4902 -0.1652 -0.8558
vn 0.3552 -0.1827 -0.9168
vn 0.4406 -0.2639 -0.8580
vn 0.4598 -0.3503 -0.8160
vn 0.3666 -0.3661 -0.8553
vn 0.2884 -0.4788 -0.8292
vn -0.4164 -0.3806 -0.8257
vn -0.2853 -0.4556 -0.8432
vn -0.3597 -0.3093 -0.8803
vn -0.4803 -0.2243 -0.8480
vn -0.1449 0.1058 -0.9838
vn -0.0063 0.1553 -0.9878
vn -0.3165 0.0822 -0.9450
vn -0.0150 -0.0014 -0.9999
vn -0.3901 -0.0375 -0.9200
vn -0.1800 -0.0418 -0.9828
vn -0.3458 -0.1388 -0.9280
vn -0.2175 -0.1889 -0.9576
vn -0.0516 -0.1538 -0.9868
vn 0.0220 -0.2530 -0.9672
vn -0.1253 -0.3037 -0.9445
vn -0.2448 -0.3341 -0.9102
vn -0.0153 -0.4913 -0.8708
vn -0.0224 -0.3776 -0.9257
vn 0.3429 0.1381 -0.9292
vn 0.4071 0.2254 -0.8851
vn 0.5791 0.0958 0.8096
vn 0.6208 0.0556 0.7820
vn 0.5744 0.2417 0.7821
vn 0.0639 0.1842 0.9808
vn 0.1677 0.2091 0.9634
vn -0.0347 0.2859 0.9576
vn -0.3054 0.1568 0.9392
vn -0.3172 0.2998 0.8997
vn -0.4132 0.2061 0.8870
vn -0.4794 0.2930 0.8272
vn -0.5497 0.2986 0.7802
vn -0.4482 0.4237 0.7871
vn -0.3858 0.4123 0.8253
vn -0.2756 0.4421 0.8536
vn -0.2972 0.5189 0.8015
vn 0.0349 0.6099 0.7917
vn 0.1709 0.5258 0.8333
vn 0.2260 0.5628 0.7951
vn 0.5146 0.2836 0.8092
vn 0.4173 0.3936 0.8191
vn 0.3647 0.2578 0.8947
vn 0.4855 0.4045 0.7750
vn 0.2937 0.4288 0.8543
vn 0.2355 0.2857 0.9289
vn 0.1275 0.3803 0.9160
vn 0.3405 0.5010 0.7957
vn -0.5706 0.1608 0.8053
vn -0.1905 0.2542 0.9482
vn -0.1459 0.1482 0.9781
vn 0.3034 0.1183 0.9455
vn 0.4612 0.1460 0.8752
vn -0.6131 0.0661 0.7872
vn -0.4532 0.0754 0.8882
vn -0.0218 0.0833 0.9963
vn -0.5299 -0.2860 0.7984
vn -0.5490 -0.1972 0.8122
vn -0.6146 -0.1149 0.7805
vn -0.5467 -0.0340 0.8366
vn -0.4089 -0.2936 0.8641
vn -0.4506 -0.3835 0.8061
vn -0.3292 -0.4464 0.8321
vn -0.2462 -0.3353 0.9094
vn -0.1030 -0.3199 0.9418
vn -0.0440 -0.4450 0.8944
vn 0.0811 -0.3322 0.9397
vn 0.3645 -0.5074 0.7808
vn 0.2682 -0.5221 0.8096
vn 0.2273 -0.5860 0.7778
vn 0.0365 -0.6153 0.7875
vn 0.1388 -0.5633 0.8145
vn -0.1608 -0.6111 0.7750
vn -0.0818 -0.5676 0.8193
vn -0.2376 -0.5574 0.7955
vn -0.1724 -0.4507 0.8759
vn -0.3595 -0.5168 0.7770
vn 0.4900 -0.3912 0.7790
vn 0.4205 -0.4135 0.8076
vn 0.4865 -0.2807 0.8273
vn 0.3280 -0.4093 0.8514
vn 0.3632 -0.2736 0.8906
vn 0.2033 -0.4161 0.8863
vn 0.2432 -0.2906 0.9254
vn 0.5690 -0.2497 0.7835
vn 0.5596 -0.1138 0.8209
vn 0.6063 -0.0769 0.7915
vn -0.1766 0.0454 0.9832
vn 0.1556 0.0399 0.9870
vn -0.2965 0.0074 0.9550
vn 0.4365 -0.0001 0.8997
vn 0.2439 -0.0443 0.9688
vn 0.0429 -0.0309 0.9986
vn -0.1110 -0.1064 0.9881
vn 0.3348 -0.1243 0.9341
vn -0.4286 -0.1186 0.8957
vn 0.0807 -0.1371 0.9873
vn -0.2884 -0.1253 0.9493
vn 0.4519 -0.1511 0.8792
vn 0.1889 -0.1891 0.9636
vn -0.0276 -0.2100 0.9773
vn -0.2606 -0.2181 0.9405
vn 0.0467 -0.5059 0.8613
vn 0.0273 0.5305 0.8473
vn -0.1322 0.5566 0.8202
vn -0.1619 0.5943 0.7878
vn -0.0424 0.4151 0.9088
vn -0.1720 0.4102 0.8956
usemtl None
s 1
f 40//1 1//2 2//3
f 40//1 2//3 3//4
f 3//4 2//3 4//5
f 3//4 4//5 5//6
f 3//4 5//6 6//7
f 6//7 5//6 7//8
f 6//7 7//8 8//9
f 8//9 7//8 9//10
f 8//9 9//10 10//11
f 10//11 9//10 11//12
f 10//11 11//12 12//13
f 12//13 11//12 13//14
f 12//13 13//14 14//15
f 14//15 13//14 15//16
f 14//15 15//16 16//17
f 16//17 15//16 17//18
f 16//17 17//18 18//19
f 18//19 17//18 19//20
f 18//19 19//20 20//21
f 20//21 19//20 21//22
f 20//21 21//22 22//23
f 22//23 21//22 23//24
f 22//23 23//24 24//25
f 24//25 23//24 25//26
f 24//25 25//26 26//27
f 26//27 25//26 27//28
f 26//27 27//28 28//29
f 28//29 27//28 104//30
f 28//29 104//30 29//31
f 28//29 29//31 30//32
f 30//32 29//31 31//33
f 30//32 31//33 32//34
f 32//34 31//33 33//35
f 32//34 33//35 34//36
f 34//36 33//35 35//37
f 34//36 35//37 36//38
f 36//38 35//37 37//39
f 36//38 37//39 38//40
f 36//38 38//40 39//41
f 39//41 38//40 1//2
f 39//41 1//2 40//1
f 40//42 77//43 39//44
f 34//45 43//46 32//34
f 69//47 44//48 86//49
f 69//47 86//49 67//50
f 67//50 86//49 45//51
f 67//50 45//51 46//52
f 46//52 74//53 47//54
f 49//55 58//56 59//57
f 58//56 12//13 14//58
f 70//59 40//42 3//4
f 3//4 6//7 50//60
f 52//61 51//62 55//63
f 52//61 55//63 53//64
f 54//65 53//64 49//55
f 54//65 49//55 48//66
f 50//60 6//7 51//62
f 51//62 56//67 55//63
f 55//63 56//67 57//68
f 55//63 57//68 53//64
f 53//64 57//68 49//55
f 6//7 8//9 51//62
f 49//55 57//68 58//56
f 51//62 8//9 56//67
f 56//67 8//9 10//11
f 56//67 10//11 57//68
f 57//68 10//11 12//13
f 57//68 12//13 58//56
f 14//58 16//17 59//57
f 18//19 89//69 16//17
f 16//17 89//69 59//57
f 14//58 59//57 58//56
f 61//70 20//21 22//71
f 61//70 22//71 60//72
f 61//70 60//72 63//73
f 61//70 63//73 62//74
f 47//54 62//74 46//52
f 60//72 24//75 64//76
f 60//72 64//76 63//73
f 63//73 64//76 65//77
f 63//73 65//77 62//74
f 62//74 65//77 67//50
f 62//74 67//50 46//52
f 65//77 66//78 67//50
f 66//78 24//75 26//79
f 66//78 26//79 68//80
f 67//50 68//80 69//47
f 68//80 26//79 28//81
f 68//80 28//81 69//47
f 69//47 28//81 44//48
f 44//48 28//81 30//32
f 36//82 42//83 34//45
f 41//84 36//82 82//85
f 36//82 39//44 82//85
f 70//59 3//4 50//60
f 52//61 50//60 51//62
f 71//86 52//61 53//64
f 71//86 53//64 72//87
f 72//87 53//64 54//65
f 73//88 50//60 52//61
f 72//87 54//65 47//54
f 47//54 54//65 48//66
f 70//59 50//60 73//88
f 73//88 52//61 71//86
f 74//53 72//87 47//54
f 75//89 71//86 72//87
f 75//89 72//87 74//53
f 76//90 70//59 73//88
f 78//91 73//88 71//86
f 77//43 40//42 70//59
f 77//43 70//59 76//90
f 76//90 73//88 78//91
f 78//91 71//86 75//89
f 79//92 76//90 78//91
f 46//52 75//89 74//53
f 80//93 79//92 78//91
f 81//94 78//91 75//89
f 81//94 75//89 46//52
f 39//44 77//43 82//85
f 82//85 77//43 76//90
f 82//85 76//90 79//92
f 80//93 78//91 81//94
f 83//95 81//94 46//52
f 83//95 46//52 45//51
f 42//83 43//46 34//45
f 41//84 82//85 79//92
f 41//84 79//92 80//93
f 84//96 80//93 81//94
f 41//84 85//97 42//83
f 83//95 84//96 81//94
f 42//83 36//82 41//84
f 85//97 41//84 80//93
f 85//97 80//93 84//96
f 86//49 83//95 45//51
f 42//83 85//97 43//46
f 43//46 87//98 32//34
f 88//99 84//96 83//95
f 88//99 83//95 86//49
f 32//34 87//98 30//32
f 43//46 85//97 84//96
f 43//46 84//96 88//99
f 87//98 43//46 88//99
f 87//98 88//99 86//49
f 87//98 44//48 30//32
f 44//48 87//98 86//49
f 59//57 89//69 49//55
f 49//55 89//69 48//66
f 47//54 48//66 91//100
f 89//69 90//101 48//66
f 48//66 90//101 91//100
f 47//54 91//100 62//74
f 68//80 67//50 66//78
f 91//100 61//70 62//74
f 89//69 18//19 90//101
f 91//100 90//101 61//70
f 66//78 65//77 64//76
f 18//19 20//21 90//101
f 90//101 20//21 61//70
f 24//75 66//78 64//76
f 24//75 60//72 22//71
f 92//102 1//103 38//104
f 97//105 96//106 156//107
f 100//108 99//109 101//110
f 101//110 99//109 102//111
f 25//112 102//111 27//113
f 27//113 102//111 103//114
f 103//114 153//115 104//116
f 31//117 106//118 33//119
f 93//120 108//121 94//122
f 38//104 37//123 93//120
f 94//122 108//121 109//124
f 94//122 109//124 95//125
f 95//125 109//124 107//126
f 93//120 37//123 108//121
f 109//124 106//118 107//126
f 108//121 37//123 35//127
f 104//116 27//113 103//114
f 25//112 110//128 102//111
f 102//111 110//128 101//110
f 99//109 100//108 98//129
f 98//129 111//130 156//107
f 95//125 96//106 94//122
f 94//122 96//106 128//131
f 93//120 94//122 112//132
f 93//120 112//132 92//102
f 93//120 92//102 38//104
f 25//112 23//133 110//128
f 110//128 130//134 101//110
f 156//107 111//130 129//135
f 156//107 129//135 97//105
f 94//122 128//131 112//132
f 19//136 113//137 21//138
f 21//138 113//137 114//139
f 21//138 114//139 23//133
f 23//133 114//139 110//128
f 148//140 17//141 125//142
f 148//140 125//142 115//143
f 116//144 117//145 118//146
f 7//147 122//148 9//149
f 11//150 9//149 123//151
f 13//152 151//153 126//154
f 126//154 151//153 124//155
f 124//155 116//144 115//143
f 17//141 15//156 125//142
f 124//155 125//142 126//154
f 15//156 13//152 126//154
f 7//147 5//157 121//158
f 5//157 127//159 121//158
f 121//158 127//159 120//160
f 120//160 127//159 146//161
f 120//160 146//161 119//162
f 119//162 146//161 149//163
f 119//162 149//163 118//146
f 17//141 148//140 19//136
f 127//159 5//157 4//164
f 137//165 4//164 2//166
f 2//166 1//103 92//102
f 133//167 111//130 98//129
f 133//167 98//129 100//108
f 130//134 100//108 101//110
f 131//168 128//131 96//106
f 131//168 96//106 97//105
f 131//168 97//105 129//135
f 134//169 100//108 130//134
f 132//170 92//102 112//132
f 132//170 112//132 128//131
f 135//171 128//131 131//168
f 136//172 131//168 129//135
f 133//167 129//135 111//130
f 134//169 133//167 100//108
f 114//139 130//134 110//128
f 135//171 132//170 128//131
f 138//173 129//135 133//167
f 2//166 92//102 137//165
f 137//165 92//102 132//170
f 140//174 132//170 135//171
f 136//172 129//135 138//173
f 139//175 134//169 130//134
f 139//175 130//134 114//139
f 141//176 135//171 131//168
f 141//176 131//168 136//172
f 138//173 133//167 134//169
f 138//173 134//169 142//177
f 142//177 134//169 139//175
f 143//178 137//165 132//170
f 143//178 132//170 140//174
f 144//179 135//171 141//176
f 141//176 136//172 145//180
f 145//180 136//172 138//173
f 140//174 135//171 144//179
f 113//137 139//175 114//139
f 127//159 137//165 143//178
f 146//161 143//178 140//174
f 147//181 138//173 142//177
f 147//181 142//177 148//140
f 148//140 142//177 139//175
f 4//164 137//165 127//159
f 146//161 127//159 143//178
f 146//161 140//174 149//163
f 149//163 140//174 144//179
f 118//146 144//179 141//176
f 118//146 141//176 145//180
f 116//144 145//180 138//173
f 116//144 138//173 147//181
f 148//140 139//175 113//137
f 149//163 144//179 118//146
f 115//143 116//144 147//181
f 115//143 147//181 148//140
f 148//140 113//137 19//136
f 119//162 118//146 150//182
f 150//182 118//146 117//145
f 117//145 116//144 124//155
f 109//124 108//121 35//127
f 121//158 120//160 7//147
f 7//147 120//160 122//148
f 109//124 35//127 33//119
f 109//124 33//119 106//118
f 122//148 120//160 119//162
f 122//148 119//162 123//151
f 123//151 119//162 150//182
f 151//153 117//145 124//155
f 9//149 122//148 123//151
f 150//182 117//145 151//153
f 106//118 31//117 152//183
f 105//184 31//117 29//185
f 152//183 31//117 105//184
f 104//116 105//184 29//185
f 153//115 105//184 104//116
f 155//186 152//183 105//184
f 155//186 105//184 154//187
f 154//187 105//184 153//115
f 107//126 106//118 152//183
f 107//126 152//183 155//186
f 156//107 107//126 155//186
f 156//107 155//186 98//129
f 98//129 155//186 154//187
f 98//129 154//187 99//109
f 99//109 154//187 153//115
f 99//109 153//115 103//114
f 99//109 103//114 102//111
f 107//126 96//106 95//125
f 156//107 96//106 107//126
f 11//150 123//151 150//182
f 11//150 150//182 151//153
f 116//144 118//146 145//180
f 13//152 11//150 151//153
f 126//154 125//142 15//156
f 124//155 115//143 125//142
