# Blender v2.91.0 OBJ File: 'laser_emitter_better.blend'
# www.blender.org
mtllib piston.mtl
o Piston_slidy_bit_(x4)
v -0.008869 0.041563 -0.004062
v -0.009363 0.041563 0.001016
v -0.006666 0.041563 0.006126
v -0.000372 0.041563 0.009120
v -0.000099 -0.046758 0.009135
v 0.005950 0.041563 0.007126
v 0.005438 -0.046758 0.007494
v 0.007078 0.007393 0.006079
v 0.007078 -0.012634 0.006128
v 0.010024 -0.046758 0.001413
v 0.009878 -0.013620 0.001254
v -0.007410 0.006166 -0.006751
v -0.003960 0.041563 -0.009753
v -0.004515 0.006651 -0.009139
v 0.005076 0.041563 -0.009300
v 0.000007 0.008771 -0.010370
v 0.004481 0.010517 -0.009365
v 0.008311 0.010809 -0.006137
v 0.009494 0.041563 -0.003726
v 0.010023 0.008683 0.000691
v 0.009493 0.041563 0.002387
v -0.009470 -0.046758 0.000882
v -0.007342 -0.046758 -0.006702
v -0.007295 -0.011291 -0.006705
v -0.005740 -0.046758 0.006951
v 0.007385 -0.046758 -0.007535
v 0.008547 -0.015992 -0.005865
v -0.000978 -0.046758 -0.010572
v 0.002849 -0.015246 -0.010180
v -0.003871 -0.012108 -0.009502
v 0.009262 0.003825 0.008078
v 0.009356 -0.008692 0.008161
v 0.010487 -0.002871 0.009166
v 0.354415 0.010722 -0.394241
v 0.357957 0.008694 -0.391092
v 0.360697 0.005321 -0.388656
v 0.362447 -0.000402 -0.387100
v 0.362375 -0.005087 -0.387165
v 0.358496 -0.013386 -0.390613
v 0.355173 -0.015691 -0.393567
v 0.350685 -0.015917 -0.397557
v 0.346455 -0.013544 -0.401318
v 0.343076 -0.007616 -0.404321
v 0.342407 -0.000901 -0.404916
v 0.343513 0.003541 -0.403933
v 0.345656 0.007447 -0.402027
v 0.349633 0.010361 -0.398492
v 0.360784 -0.010276 -0.388579
v -0.008264 -0.009606 -0.007503
v -0.009549 -0.005404 -0.008646
v -0.009603 0.000104 -0.008694
vn -0.8843 0.0004 0.4668
vn -0.8533 -0.0039 0.5213
vn -0.8828 0.0001 0.4698
vn -0.4295 0.0039 0.9030
vn -0.3646 -0.0007 0.9312
vn -0.4266 0.0037 0.9044
vn -0.3611 -0.0009 0.9325
vn 0.3008 0.0011 0.9537
vn 0.2849 0.0023 0.9585
vn 0.5769 0.0047 0.8168
vn 0.5655 -0.0060 0.8247
vn 0.7389 -0.0031 0.6738
vn 0.7035 0.0024 0.7107
vn 0.8062 -0.0122 0.5916
vn 0.8677 0.0062 0.4970
vn -0.9615 -0.0084 -0.2745
vn -0.9214 0.0095 -0.3884
vn -0.8228 -0.0012 -0.5683
vn -0.3953 0.0213 -0.9183
vn -0.4970 -0.0074 -0.8677
vn -0.0760 -0.0063 -0.9971
vn 0.4593 0.0207 -0.8880
vn 0.4159 -0.0060 -0.9094
vn 0.9445 0.0157 -0.3280
vn 0.8571 -0.0130 -0.5150
vn 0.9819 -0.0124 0.1888
vn 0.9480 0.0115 0.3180
vn -0.9645 -0.0082 -0.2640
vn -0.9953 0.0014 -0.0968
vn -0.8519 -0.0040 0.5236
vn 0.9589 -0.0209 -0.2829
vn 0.9798 -0.0003 -0.2000
vn 0.9631 -0.0173 -0.2686
vn 0.9828 0.0035 -0.1848
vn 0.3800 -0.0229 -0.9247
vn 0.2195 0.0190 -0.9754
vn 0.6052 0.0203 -0.7958
vn -0.1028 -0.0223 -0.9945
vn -0.4442 0.0079 -0.8959
vn -0.5290 -0.0156 -0.8485
vn -0.6325 0.0008 -0.7746
vn 0.3046 -0.0005 -0.9525
vn -0.0000 -1.0000 -0.0000
vn 0.0000 1.0000 0.0000
vn -0.6734 0.0018 0.7393
vn -0.6678 0.0005 0.7443
vn -0.6721 0.0015 0.7404
vn -0.6656 -0.0000 0.7463
vn -0.6644 -0.0000 0.7474
vn 0.1307 0.9846 0.1163
vn 0.4962 0.7518 0.4343
vn 0.1296 0.9849 0.1149
vn 0.4060 0.8397 0.3606
vn 0.6011 0.6379 0.4814
vn 0.6706 0.4576 0.5839
vn -0.5564 -0.6657 -0.4973
vn -0.5882 -0.5967 -0.5458
vn -0.6460 -0.4951 -0.5810
vn -0.1913 0.9667 -0.1701
vn -0.2053 0.9614 -0.1830
vn -0.4245 0.8232 -0.3770
vn -0.4921 0.7523 -0.4381
vn -0.4794 0.7674 -0.4257
vn -0.6573 0.4770 -0.5835
vn -0.6636 0.4594 -0.5904
vn -0.7299 0.2166 -0.6483
vn -0.7437 0.0945 -0.6618
vn -0.7326 -0.1994 -0.6508
vn -0.6902 -0.3820 -0.6145
vn -0.4567 -0.7911 -0.4069
vn -0.2961 -0.9184 -0.2623
vn -0.1331 -0.9839 -0.1191
vn 0.1334 -0.9838 0.1195
vn 0.1909 -0.9669 0.1693
vn 0.4416 -0.8067 0.3927
vn 0.4439 -0.8046 0.3943
vn 0.5769 -0.6353 0.5133
vn 0.6240 -0.5509 0.5542
vn 0.6706 -0.4408 0.5967
vn 0.7470 -0.0072 0.6648
vn 0.7321 -0.2036 0.6501
vn 0.7351 0.1828 0.6528
vn 0.6138 0.5711 0.5451
vn 0.6644 0.0000 -0.7474
vn -0.6381 -0.0022 0.7700
vn -0.6591 -0.0002 0.7520
vn -0.6422 -0.0018 0.7665
vn -0.6635 0.0002 0.7482
usemtl None
s 1
f 2//1 22//2 3//3
f 3//4 25//5 4//6
f 4//6 25//5 5//7
f 4//8 5//9 6//10
f 6//10 5//9 7//11
f 6//10 7//11 8//12
f 8//12 7//11 9//13
f 9//13 7//11 10//14
f 9//13 10//14 11//15
f 23//16 1//17 12//18
f 12//18 1//17 13//19
f 12//18 13//19 14//20
f 14//20 13//19 16//21
f 15//22 16//21 13//19
f 16//21 15//22 17//23
f 19//24 18//25 15//22
f 19//24 20//26 18//25
f 21//27 20//26 19//24
f 20//26 21//27 8//12
f 8//12 21//27 6//10
f 22//28 2//29 1//17
f 22//28 1//17 23//16
f 3//3 22//2 25//30
f 26//31 27//32 10//33
f 10//33 27//32 11//34
f 26//35 29//36 27//37
f 28//38 29//36 26//35
f 28//38 30//39 29//36
f 23//40 30//39 28//38
f 30//39 23//40 24//41
f 18//25 17//23 15//22
f 12//42 24//42 23//42
f 22//43 10//43 25//43
f 25//43 10//43 7//43
f 25//43 7//43 5//43
f 10//43 22//43 26//43
f 26//43 22//43 23//43
f 26//43 23//43 28//43
f 2//44 21//44 19//44
f 2//44 19//44 1//44
f 1//44 19//44 15//44
f 1//44 15//44 13//44
f 21//44 2//44 3//44
f 21//44 3//44 6//44
f 6//44 3//44 4//44
f 8//45 9//46 31//47
f 31//47 9//46 32//48
f 31//47 32//48 33//49
f 18//50 20//51 34//52
f 34//52 20//51 35//53
f 8//54 31//55 20//51
f 30//56 24//57 49//58
f 17//59 34//52 47//60
f 16//61 47//60 46//62
f 18//50 34//52 17//59
f 17//59 47//60 16//61
f 16//61 46//62 14//63
f 12//64 46//62 45//65
f 14//63 46//62 12//64
f 12//64 45//65 51//66
f 51//66 45//65 44//67
f 50//68 43//69 49//58
f 50//68 44//67 43//69
f 51//66 44//67 50//68
f 49//58 42//70 30//56
f 49//58 43//69 42//70
f 30//56 42//70 29//71
f 42//70 41//72 29//71
f 27//73 41//72 40//74
f 27//73 29//71 41//72
f 11//75 27//73 40//74
f 11//75 40//74 39//76
f 11//75 39//76 9//77
f 9//77 39//76 48//78
f 9//77 48//78 32//79
f 33//80 32//79 38//81
f 33//80 38//81 37//82
f 32//79 48//78 38//81
f 31//55 33//80 37//82
f 31//55 37//82 36//83
f 31//55 36//83 20//51
f 20//51 36//83 35//53
f 34//84 40//84 41//84
f 34//84 41//84 47//84
f 47//84 41//84 42//84
f 47//84 42//84 46//84
f 46//84 42//84 43//84
f 46//84 43//84 45//84
f 45//84 43//84 44//84
f 40//84 34//84 35//84
f 40//84 35//84 39//84
f 39//84 35//84 36//84
f 39//84 36//84 48//84
f 48//84 36//84 38//84
f 38//84 36//84 37//84
f 24//85 12//86 49//87
f 49//87 12//86 51//88
f 49//87 51//88 50//49
