# Blender v2.82 (sub 7) OBJ File: ''
# www.blender.org
mtllib cylinder.mtl
o Cylinder_Cylinder.001
v 0.000000 0.043438 -0.665712
v 0.000000 1.049451 -0.665712
v 0.129874 0.043438 -0.652920
v 0.129874 1.049451 -0.652920
v 0.254757 0.043438 -0.615038
v 0.254757 1.049451 -0.615038
v 0.369850 0.043438 -0.553519
v 0.369850 1.049451 -0.553519
v 0.470729 0.043438 -0.470729
v 0.470729 1.049451 -0.470729
v 0.553519 0.043438 -0.369850
v 0.553519 1.049451 -0.369850
v 0.615038 0.043438 -0.254757
v 0.615038 1.049451 -0.254757
v 0.652920 0.043438 -0.129874
v 0.652920 1.049451 -0.129874
v 0.665712 0.043438 -0.000000
v 0.665712 1.049451 -0.000000
v 0.652920 0.043438 0.129874
v 0.652920 1.049451 0.129874
v 0.615038 0.043438 0.254757
v 0.615038 1.049451 0.254757
v 0.553519 0.043438 0.369850
v 0.553519 1.049451 0.369850
v 0.470729 0.043438 0.470729
v 0.470729 1.049451 0.470729
v 0.369850 0.043438 0.553519
v 0.369850 1.049451 0.553519
v 0.254757 0.043438 0.615038
v 0.254757 1.049451 0.615038
v 0.129874 0.043438 0.652920
v 0.129874 1.049451 0.652920
v -0.000000 0.043438 0.665712
v -0.000000 1.049451 0.665712
v -0.129874 0.043438 0.652920
v -0.129874 1.049451 0.652920
v -0.254757 0.043438 0.615037
v -0.254757 1.049451 0.615037
v -0.369850 0.043438 0.553519
v -0.369850 1.049451 0.553519
v -0.470730 0.043438 0.470729
v -0.470730 1.049451 0.470729
v -0.553519 0.043438 0.369849
v -0.553519 1.049451 0.369849
v -0.615038 0.043438 0.254756
v -0.615038 1.049451 0.254756
v -0.652920 0.043438 0.129873
v -0.652920 1.049451 0.129873
v -0.665712 0.043438 -0.000001
v -0.665712 1.049451 -0.000001
v -0.652920 0.043438 -0.129875
v -0.652920 1.049451 -0.129875
v -0.615037 0.043438 -0.254758
v -0.615037 1.049451 -0.254758
v -0.553519 0.043438 -0.369850
v -0.553519 1.049451 -0.369850
v -0.470729 0.043438 -0.470730
v -0.470729 1.049451 -0.470730
v -0.369849 0.043438 -0.553520
v -0.369849 1.049451 -0.553520
v -0.254756 0.043438 -0.615038
v -0.254756 1.049451 -0.615038
v -0.129873 0.043438 -0.652921
v -0.129873 1.049451 -0.652921
v 0.000000 0.043438 -0.714603
v 0.139412 0.043438 -0.700873
v 0.139412 1.049451 -0.700873
v 0.000000 1.049451 -0.714603
v 0.273467 0.043438 -0.660208
v 0.273467 1.049451 -0.660208
v 0.397012 0.043438 -0.594171
v 0.397012 1.049451 -0.594171
v 0.505301 0.043438 -0.505301
v 0.505301 1.049451 -0.505301
v 0.594171 0.043438 -0.397012
v 0.594171 1.049451 -0.397012
v 0.660208 0.043438 -0.273467
v 0.660208 1.049451 -0.273467
v 0.700873 0.043438 -0.139412
v 0.700873 1.049451 -0.139412
v 0.714603 0.043438 -0.000000
v 0.714603 1.049451 -0.000000
v 0.700873 0.043438 0.139412
v 0.700873 1.049451 0.139412
v 0.660208 0.043438 0.273467
v 0.660208 1.049451 0.273467
v 0.594171 0.043438 0.397012
v 0.594171 1.049451 0.397012
v 0.505301 0.043438 0.505301
v 0.505301 1.049451 0.505301
v 0.397012 0.043438 0.594171
v 0.397012 1.049451 0.594171
v 0.273467 0.043438 0.660208
v 0.273467 1.049451 0.660208
v 0.139412 0.043438 0.700873
v 0.139412 1.049451 0.700873
v -0.000000 0.043438 0.714603
v -0.000000 1.049451 0.714603
v -0.139413 0.043438 0.700873
v -0.139413 1.049451 0.700873
v -0.273467 0.043438 0.660207
v -0.273467 1.049451 0.660207
v -0.397013 0.043438 0.594171
v -0.397013 1.049451 0.594171
v -0.505301 0.043438 0.505301
v -0.505301 1.049451 0.505301
v -0.594171 0.043438 0.397012
v -0.594171 1.049451 0.397012
v -0.660208 0.043438 0.273466
v -0.660208 1.049451 0.273466
v -0.700873 0.043438 0.139412
v -0.700873 1.049451 0.139412
v -0.714603 0.043438 -0.000001
v -0.714603 1.049451 -0.000001
v -0.700872 0.043438 -0.139413
v -0.700872 1.049451 -0.139413
v -0.660207 0.043438 -0.273468
v -0.660207 1.049451 -0.273468
v -0.594171 0.043438 -0.397013
v -0.594171 1.049451 -0.397013
v -0.505300 0.043438 -0.505302
v -0.505300 1.049451 -0.505302
v -0.397012 0.043438 -0.594172
v -0.397012 1.049451 -0.594172
v -0.273466 0.043438 -0.660208
v -0.273466 1.049451 -0.660208
v -0.139411 0.043438 -0.700873
v -0.139411 1.049451 -0.700873
vn -0.1951 0.0000 0.9808
vn -0.0000 0.0000 1.0000
vn -0.3827 0.0000 0.9239
vn -0.5556 0.0000 0.8315
vn -0.7071 0.0000 0.7071
vn -0.8315 0.0000 0.5556
vn -0.9239 0.0000 0.3827
vn -0.9808 0.0000 0.1951
vn -1.0000 0.0000 0.0000
vn -0.9808 0.0000 -0.1951
vn -0.9239 0.0000 -0.3827
vn -0.8315 0.0000 -0.5556
vn -0.7071 0.0000 -0.7071
vn -0.5556 0.0000 -0.8315
vn -0.3827 0.0000 -0.9239
vn -0.1951 0.0000 -0.9808
vn 0.0000 0.0000 -1.0000
vn 0.1951 0.0000 -0.9808
vn 0.3827 0.0000 -0.9239
vn 0.5556 0.0000 -0.8315
vn 0.7071 0.0000 -0.7071
vn 0.8315 0.0000 -0.5556
vn 0.9239 0.0000 -0.3827
vn 0.9808 0.0000 -0.1951
vn 1.0000 0.0000 0.0000
vn 0.9808 0.0000 0.1951
vn 0.9239 0.0000 0.3827
vn 0.8315 0.0000 0.5556
vn 0.7071 0.0000 0.7071
vn 0.5556 0.0000 0.8315
vn 0.3827 0.0000 0.9239
vn 0.1951 0.0000 0.9808
vn 0.0000 -1.0000 -0.0000
vn 0.0000 1.0000 0.0000
usemtl None
s 1
f 3//1 2//2 1//2
f 5//3 4//1 3//1
f 7//4 6//3 5//3
f 9//5 8//4 7//4
f 11//6 10//5 9//5
f 13//7 12//6 11//6
f 15//8 14//7 13//7
f 17//9 16//8 15//8
f 19//10 18//9 17//9
f 21//11 20//10 19//10
f 23//12 22//11 21//11
f 25//13 24//12 23//12
f 27//14 26//13 25//13
f 29//15 28//14 27//14
f 31//16 30//15 29//15
f 33//17 32//16 31//16
f 35//18 34//17 33//17
f 37//19 36//18 35//18
f 39//20 38//19 37//19
f 41//21 40//20 39//20
f 43//22 42//21 41//21
f 45//23 44//22 43//22
f 47//24 46//23 45//23
f 49//25 48//24 47//24
f 51//26 50//25 49//25
f 53//27 52//26 51//26
f 55//28 54//27 53//27
f 57//29 56//28 55//28
f 59//30 58//29 57//29
f 61//31 60//30 59//30
f 67//18 69//19 66//18
f 63//32 62//31 61//31
f 1//2 64//32 63//32
f 68//17 66//18 65//17
f 70//19 71//20 69//19
f 72//20 73//21 71//20
f 74//21 75//22 73//21
f 76//22 77//23 75//22
f 78//23 79//24 77//23
f 80//24 81//25 79//24
f 82//25 83//26 81//25
f 84//26 85//27 83//26
f 86//27 87//28 85//27
f 88//28 89//29 87//28
f 90//29 91//30 89//29
f 92//30 93//31 91//30
f 94//31 95//32 93//31
f 96//32 97//2 95//32
f 98//2 99//1 97//2
f 100//1 101//3 99//1
f 102//3 103//4 101//3
f 104//4 105//5 103//4
f 106//5 107//6 105//5
f 108//6 109//7 107//6
f 110//7 111//8 109//7
f 112//8 113//9 111//8
f 114//9 115//10 113//9
f 116//10 117//11 115//10
f 118//11 119//12 117//11
f 120//12 121//13 119//12
f 122//13 123//14 121//13
f 124//14 125//15 123//14
f 126//15 127//16 125//15
f 128//16 65//17 127//16
f 27//33 93//33 29//33
f 12//34 74//34 10//34
f 45//33 111//33 47//33
f 30//34 92//34 28//34
f 63//33 65//33 1//33
f 48//34 110//34 46//34
f 11//33 77//33 13//33
f 2//34 128//34 64//34
f 29//33 95//33 31//33
f 12//34 78//34 76//34
f 49//33 111//33 113//33
f 32//34 94//34 30//34
f 50//34 112//34 48//34
f 13//33 79//33 15//33
f 31//33 97//33 33//33
f 16//34 78//34 14//34
f 49//33 115//33 51//33
f 32//34 98//34 96//34
f 50//34 116//34 114//34
f 15//33 81//33 17//33
f 33//33 99//33 35//33
f 16//34 82//34 80//34
f 53//33 115//33 117//33
f 36//34 98//34 34//34
f 54//34 116//34 52//34
f 17//33 83//33 19//33
f 35//33 101//33 37//33
f 20//34 82//34 18//34
f 1//33 66//33 3//33
f 53//33 119//33 55//33
f 36//34 102//34 100//34
f 4//34 68//34 2//34
f 56//34 118//34 54//34
f 19//33 85//33 21//33
f 39//33 101//33 103//33
f 22//34 84//34 20//34
f 55//33 121//33 57//33
f 40//34 102//34 38//34
f 5//33 66//33 69//33
f 56//34 122//34 120//34
f 21//33 87//33 23//33
f 6//34 67//34 4//34
f 39//33 105//33 41//33
f 24//34 86//34 22//34
f 57//33 123//33 59//33
f 42//34 104//34 40//34
f 5//33 71//33 7//33
f 60//34 122//34 58//34
f 23//33 89//33 25//33
f 8//34 70//34 6//34
f 41//33 107//33 43//33
f 26//34 88//34 24//34
f 61//33 123//33 125//33
f 44//34 106//34 42//34
f 7//33 73//33 9//33
f 62//34 124//34 60//34
f 25//33 91//33 27//33
f 8//34 74//34 72//34
f 45//33 107//33 109//33
f 26//34 92//34 90//34
f 61//33 127//33 63//33
f 46//34 108//34 44//34
f 9//33 75//33 11//33
f 64//34 126//34 62//34
f 3//1 4//1 2//2
f 5//3 6//3 4//1
f 7//4 8//4 6//3
f 9//5 10//5 8//4
f 11//6 12//6 10//5
f 13//7 14//7 12//6
f 15//8 16//8 14//7
f 17//9 18//9 16//8
f 19//10 20//10 18//9
f 21//11 22//11 20//10
f 23//12 24//12 22//11
f 25//13 26//13 24//12
f 27//14 28//14 26//13
f 29//15 30//15 28//14
f 31//16 32//16 30//15
f 33//17 34//17 32//16
f 35//18 36//18 34//17
f 37//19 38//19 36//18
f 39//20 40//20 38//19
f 41//21 42//21 40//20
f 43//22 44//22 42//21
f 45//23 46//23 44//22
f 47//24 48//24 46//23
f 49//25 50//25 48//24
f 51//26 52//26 50//25
f 53//27 54//27 52//26
f 55//28 56//28 54//27
f 57//29 58//29 56//28
f 59//30 60//30 58//29
f 61//31 62//31 60//30
f 67//18 70//19 69//19
f 63//32 64//32 62//31
f 1//2 2//2 64//32
f 68//17 67//18 66//18
f 70//19 72//20 71//20
f 72//20 74//21 73//21
f 74//21 76//22 75//22
f 76//22 78//23 77//23
f 78//23 80//24 79//24
f 80//24 82//25 81//25
f 82//25 84//26 83//26
f 84//26 86//27 85//27
f 86//27 88//28 87//28
f 88//28 90//29 89//29
f 90//29 92//30 91//30
f 92//30 94//31 93//31
f 94//31 96//32 95//32
f 96//32 98//2 97//2
f 98//2 100//1 99//1
f 100//1 102//3 101//3
f 102//3 104//4 103//4
f 104//4 106//5 105//5
f 106//5 108//6 107//6
f 108//6 110//7 109//7
f 110//7 112//8 111//8
f 112//8 114//9 113//9
f 114//9 116//10 115//10
f 116//10 118//11 117//11
f 118//11 120//12 119//12
f 120//12 122//13 121//13
f 122//13 124//14 123//14
f 124//14 126//15 125//15
f 126//15 128//16 127//16
f 128//16 68//17 65//17
f 27//33 91//33 93//33
f 12//34 76//34 74//34
f 45//33 109//33 111//33
f 30//34 94//34 92//34
f 63//33 127//33 65//33
f 48//34 112//34 110//34
f 11//33 75//33 77//33
f 2//34 68//34 128//34
f 29//33 93//33 95//33
f 12//34 14//34 78//34
f 49//33 47//33 111//33
f 32//34 96//34 94//34
f 50//34 114//34 112//34
f 13//33 77//33 79//33
f 31//33 95//33 97//33
f 16//34 80//34 78//34
f 49//33 113//33 115//33
f 32//34 34//34 98//34
f 50//34 52//34 116//34
f 15//33 79//33 81//33
f 33//33 97//33 99//33
f 16//34 18//34 82//34
f 53//33 51//33 115//33
f 36//34 100//34 98//34
f 54//34 118//34 116//34
f 17//33 81//33 83//33
f 35//33 99//33 101//33
f 20//34 84//34 82//34
f 1//33 65//33 66//33
f 53//33 117//33 119//33
f 36//34 38//34 102//34
f 4//34 67//34 68//34
f 56//34 120//34 118//34
f 19//33 83//33 85//33
f 39//33 37//33 101//33
f 22//34 86//34 84//34
f 55//33 119//33 121//33
f 40//34 104//34 102//34
f 5//33 3//33 66//33
f 56//34 58//34 122//34
f 21//33 85//33 87//33
f 6//34 70//34 67//34
f 39//33 103//33 105//33
f 24//34 88//34 86//34
f 57//33 121//33 123//33
f 42//34 106//34 104//34
f 5//33 69//33 71//33
f 60//34 124//34 122//34
f 23//33 87//33 89//33
f 8//34 72//34 70//34
f 41//33 105//33 107//33
f 26//34 90//34 88//34
f 61//33 59//33 123//33
f 44//34 108//34 106//34
f 7//33 71//33 73//33
f 62//34 126//34 124//34
f 25//33 89//33 91//33
f 8//34 10//34 74//34
f 45//33 43//33 107//33
f 26//34 28//34 92//34
f 61//33 125//33 127//33
f 46//34 110//34 108//34
f 9//33 73//33 75//33
f 64//34 128//34 126//34
