# Blender v2.82 (sub 7) OBJ File: ''
# www.blender.org
mtllib piece.mtl
o Circle.001_Circle.011
v -0.000000 0.000000 0.006803
v -0.000000 0.035305 0.006803
v -0.593845 0.000000 0.349660
v -0.608875 0.005828 0.358338
v 0.608875 0.005828 0.358337
v 0.593845 0.000000 0.349660
v -0.608875 0.029477 0.358338
v -0.593845 0.035305 0.349660
v 0.593845 0.035305 0.349660
v 0.608875 0.029477 0.358337
vn 0.0000 0.0000 1.0000
vn 0.0000 1.0000 0.0000
vn 0.5000 0.0000 -0.8660
vn 0.0000 -1.0000 0.0000
vn 0.0000 -0.8301 0.5576
vn 0.0000 0.8301 0.5576
vn -0.5000 0.0000 -0.8660
usemtl None
s off
f 5//1 7//1 4//1
f 2//2 8//2 9//2
f 9//3 10//3 6//3
f 1//4 6//4 3//4
f 5//5 3//5 6//5
f 8//6 10//6 9//6
f 8//7 2//7 3//7
f 5//1 10//1 7//1
f 10//3 5//3 6//3
f 6//3 1//3 2//3
f 2//3 9//3 6//3
f 5//5 4//5 3//5
f 8//6 7//6 10//6
f 2//7 1//7 3//7
f 3//7 4//7 7//7
f 7//7 8//7 3//7
